<?xml version="1.0" encoding="UTF-8" standalone="no"?>
<!-- Created with Inkscape (http://www.inkscape.org/) -->

<svg
   width="325.96667mm"
   height="375.70834mm"
   viewBox="0 0 325.96667 375.70834"
   version="1.1"
   id="svg21"
   inkscape:version="1.2.2 (732a01da63, 2022-12-09, custom)"
   sodipodi:docname="FGSVLLogoHexSub.svg"
   xml:space="preserve"
   xmlns:inkscape="http://www.inkscape.org/namespaces/inkscape"
   xmlns:sodipodi="http://sodipodi.sourceforge.net/DTD/sodipodi-0.dtd"
   xmlns="http://www.w3.org/2000/svg"
   xmlns:svg="http://www.w3.org/2000/svg"><sodipodi:namedview
     id="namedview23"
     pagecolor="#505050"
     bordercolor="#ffffff"
     borderopacity="1"
     inkscape:showpageshadow="0"
     inkscape:pageopacity="0"
     inkscape:pagecheckerboard="1"
     inkscape:deskcolor="#505050"
     inkscape:document-units="mm"
     showgrid="false"
     inkscape:zoom="0.70710678"
     inkscape:cx="381.13055"
     inkscape:cy="856.30631"
     inkscape:window-width="1920"
     inkscape:window-height="1016"
     inkscape:window-x="0"
     inkscape:window-y="0"
     inkscape:window-maximized="1"
     inkscape:current-layer="layer4" /><defs
     id="defs18" /><g
     inkscape:label="Bakgrund"
     inkscape:groupmode="layer"
     id="layer1"
     transform="translate(65.350777,39.174736)"
     style="display:inline"><path
       style="display:inline;fill:#505132;stroke-width:0.264583;fill-opacity:1"
       d="M 16.072631,289.27262 -65.350777,242.26206 V 148.67916 55.096268 L 15.91636,8.1759078 C 60.613285,-17.63029 97.373833,-38.751969 97.606465,-38.761156 c 0.232632,-0.0092 37.004925,21.102887 81.716195,46.9157225 l 81.29323,46.9324245 v 93.592209 93.5922 l -81.27448,46.93266 c -44.70096,25.81297 -81.402928,46.96561 -81.559923,47.00588 -0.156996,0.0403 -36.925981,-21.08152 -81.708856,-46.93732 z"
       id="path215"
       inkscape:label="BakgrundBana" /><path
       style="fill:#807f2f;stroke-width:0.264583;fill-opacity:1"
       d="m 80.170059,301.60688 -17.330208,-10.03342 -2.845675,-0.01 -2.845674,-0.01 -8.332972,-4.80502 -8.332971,-4.80502 V 148.68028 15.416175 l 8.32431,-4.805873 8.324309,-4.8058708 h 2.815187 2.815186 L 80.201748,-4.2640374 97.641949,-14.332506 115.08066,-4.2640374 132.51938,5.8044312 h 2.80728 2.80728 l 8.32431,4.8058708 8.32431,4.805873 V 148.67943 281.94271 l -8.32431,4.80586 -8.32431,4.80587 h -2.80728 -2.80728 l -17.41394,10.05416 c -9.57767,5.5298 -17.456977,10.04912 -17.509563,10.04293 -0.05259,-0.006 -7.894203,-4.52628 -17.425818,-10.04465 z"
       id="path348"
       inkscape:label="StolpeBana" /><g
       id="g281"
       inkscape:label="BordBana"
       style="display:inline"><path
         style="fill:#807f2f;stroke-width:0.264583;fill-opacity:1"
         d="M 84.652959,319.7723 C 77.586941,315.67586 42.731394,295.53732 7.1961878,275.01999 L -57.413277,237.71575 V 148.67847 59.641201 L 0.32332609,26.306672 C 32.078457,7.9726787 66.965087,-12.169448 77.849172,-18.453611 l 19.789241,-11.425751 77.519987,44.757568 77.51999,44.757566 v 89.043478 89.04348 l -77.42344,44.70908 c -42.58289,24.59001 -77.497969,44.72697 -77.589062,44.74883 -0.09109,0.022 -5.94691,-3.3119 -13.012929,-7.40834 z m 87.994551,-42.11315 74.72242,-43.12242 1e-4,-85.8573 1.3e-4,-85.857289 L 172.50531,19.617304 97.640469,-23.587535 79.17243,-12.926448 C 69.015007,-7.0628489 35.322741,12.379327 4.3007254,30.27839 l -56.4036664,32.543751 1.44e-4,85.857289 1.45e-4,85.8573 55.7168471,32.14687 c 30.6442669,17.68078 64.3049239,37.11194 74.8014609,43.18035 10.496534,6.0684 19.180199,11.00738 19.297028,10.97555 0.11683,-0.0319 33.837506,-19.46302 74.934826,-43.18035 z"
         id="path289" /><path
         style="fill:#505132;stroke-width:0.264583;fill-opacity:1"
         d="M 83.874225,325.59922 C 76.525422,321.34634 40.538781,300.56035 3.9039112,279.40813 L -62.704944,240.94957 V 148.67852 56.407474 L -3.9012972,22.456365 C 28.440708,3.7832555 64.451842,-17.008366 76.123444,-23.747239 c 11.671601,-6.738873 21.352975,-12.252497 21.514165,-12.252497 0.161187,0 36.301931,20.789908 80.312761,46.199794 l 80.01969,46.199796 v 92.279176 92.27919 l -80.01976,46.20019 c -44.01087,25.41011 -80.1761,46.19413 -80.367187,46.18675 -0.191088,-0.007 -6.360086,-3.49305 -13.708888,-7.74594 z m 91.380725,-43.16741 77.42344,-44.70908 V 148.67925 59.635772 L 175.1584,14.878206 97.638413,-29.879362 77.849172,-18.453611 C 66.965087,-12.169448 32.078457,7.9726787 0.32332609,26.306672 L -57.413277,59.641201 v 89.037269 89.03728 l 64.6094648,37.30424 c 35.5352062,20.51733 70.3907532,40.65587 77.4567712,44.75231 7.066019,4.09644 12.921838,7.43019 13.012929,7.40834 0.09109,-0.022 35.006172,-20.15882 77.589062,-44.74883 z M 78.415656,309.86395 C 67.919119,303.79554 34.258462,284.36438 3.6141951,266.6836 l -55.7168471,-32.14687 -1.45e-4,-85.8573 -1.44e-4,-85.857289 L 4.3007254,30.27839 C 35.322741,12.379327 69.015007,-7.0628489 79.17243,-12.926448 l 18.468039,-10.661087 74.864841,43.204839 74.86485,43.204837 -1.3e-4,85.857289 -1e-4,85.8573 -74.72242,43.12242 c -41.09732,23.71733 -74.817996,43.14849 -74.934826,43.18035 -0.116829,0.0318 -8.800494,-4.90715 -19.297028,-10.97555 z m 22.133724,3.58074 c 1.08788,-0.62069 33.21379,-19.1634 71.3909,-41.20605 53.78289,-31.05307 69.49647,-40.23903 69.78386,-40.79481 0.31583,-0.61077 0.37071,-12.90817 0.36952,-82.8174 0,-77.639869 -0.0265,-82.139731 -0.46302,-82.829184 -0.33483,-0.528818 -19.61026,-11.783788 -70.17933,-40.977887 -38.34474,-22.1368522 -70.44197,-40.650415 -71.32718,-41.14125 -0.967217,-0.536306 -1.978503,-0.892428 -2.534241,-0.892428 -0.738003,0 -5.302274,2.526693 -22.599905,12.5108708 C -40.522845,61.97046 -46.094573,65.210273 -46.459672,65.916295 c -0.555558,1.07433 -0.556289,164.450595 -7.41e-4,165.524725 0.363251,0.70231 7.603588,4.91239 121.451963,70.62121 17.616761,10.16773 21.854931,12.51096 22.628284,12.51096 0.634487,0 1.610691,-0.37606 2.929546,-1.1285 z"
         id="path287" /><path
         style="fill:#004676;stroke-width:0.264583"
         d="m 97.304914,314.38605 c 0.329118,-0.0633 0.805368,-0.0609 1.058333,0.005 0.252966,0.0662 -0.01632,0.118 -0.598397,0.11507 -0.582084,-0.003 -0.789054,-0.0571 -0.459936,-0.12042 z m 0,-331.522915 c 0.329118,-0.06329 0.805368,-0.06088 1.058333,0.0053 0.252966,0.06622 -0.01632,0.118003 -0.598397,0.115067 -0.582084,-0.0029 -0.789054,-0.05712 -0.459936,-0.120406 z"
         id="path285" /><path
         style="fill:#3a3440;stroke-width:0.264583;fill-opacity:1"
         d="M 81.492975,327.40723 C 72.834485,322.40107 36.282297,301.29015 0.26589034,280.49406 L -65.218485,242.68301 V 148.6788 54.674596 L -5.6872347,20.301773 C 27.054953,1.3967191 63.659219,-19.737061 75.655578,-26.662184 c 19.827701,-11.445912 21.873234,-12.566389 22.489584,-12.319079 0.372911,0.149629 37.051618,21.28162 81.508228,46.9599795 L 260.4836,54.666643 v 94.012347 94.01235 l -81.22708,46.91153 c -44.6749,25.80135 -81.405681,46.91039 -81.623962,46.90899 -0.218281,-0.003 -7.481094,-4.09848 -16.139583,-9.10463 z M 177.9503,287.15841 257.97006,240.95822 V 148.67903 56.399854 L 177.95037,10.200058 c -44.01083,-25.409886 -80.151574,-46.199794 -80.312761,-46.199794 -0.16119,0 -9.842564,5.513624 -21.514165,12.252497 C 64.451842,-17.008366 28.440708,3.7832555 -3.9012972,22.456365 L -62.704944,56.407474 v 92.271046 92.27105 l 66.6088552,38.45856 c 36.6348698,21.15222 72.6215108,41.93821 79.9703138,46.19109 7.348802,4.25289 13.5178,7.73856 13.708888,7.74594 0.191087,0.007 36.356317,-20.77664 80.367187,-46.18675 z m -86.03203,24.43081 c -2.605215,-1.49567 -34.718512,-20.03081 -71.362883,-41.18925 -52.449601,-30.28437 -66.706901,-38.62607 -67.00573,-39.20395 -0.57299,-1.10802 -0.572714,-163.925675 2.79e-4,-165.033721 0.2992,-0.578591 14.52986,-8.904785 67.005729,-39.204274 36.644217,-21.158319 68.75739,-39.69324 71.362605,-41.188715 3.669448,-2.106377 4.957463,-2.719046 5.716267,-2.719046 0.769435,0 2.193602,0.697424 6.640333,3.251809 3.11344,1.788496 35.22514,20.3222705 71.35931,41.186167 51.86265,29.945542 65.77876,38.0896 66.07969,38.671511 0.57563,1.113187 0.57555,163.926339 -10e-5,165.039549 -0.30104,0.58214 -14.20844,8.72104 -66.07968,38.67118 -36.13413,20.86362 -68.24578,39.39731 -71.35922,41.186 -4.44694,2.55476 -5.870864,3.25212 -6.640333,3.25212 -0.758849,0 -2.0466,-0.61261 -5.716267,-2.71938 z m 76.65101,-40.84958 70.87995,-40.92313 V 148.6795 67.54249 L 168.54473,26.604558 97.640236,-14.333372 26.728063,26.608511 -44.18411,67.550396 v 81.129024 81.12902 l 70.842188,40.91599 c 38.963204,22.50376 70.884728,40.92098 70.936721,40.92715 0.05199,0.006 31.990511,-18.40421 70.974481,-40.91194 z"
         id="path283" /></g></g><g
     inkscape:groupmode="layer"
     id="layer3"
     inkscape:label="DevOps"
     transform="translate(-30.136618,-19.15145)"
     style="display:inline"><path
       style="fill:#9f9679;stroke-width:0.41952757;stroke-dasharray:none;fill-opacity:1"
       d="m 514.53875,709.47519 c -5.42377,-0.48042 -10.69029,-0.58552 -18.36192,-2.57246 -31.37012,-8.12482 -61.28375,-25.87359 -85.22014,-50.31519 -13.67906,-13.96778 -22.13518,-25.08814 -30.7581,-41.91052 -7.53032,-14.69083 -13.69106,-28.73556 -14.60286,-35.07129 -0.23294,-1.6186 -0.70657,-4.63967 -1.15989,-5.81979 -3.46807,-9.02841 -3.91226,-43.28948 -1.46137,-60.87944 1.85555,-13.31715 6.2024,-29.81728 11.62449,-42.94174 2.53613,-6.13885 9.20797,-17.97345 13.05393,-24.00911 17.65158,-27.70151 43.95697,-51.2013 72.94165,-65.09753 12.44783,-5.96791 25.9838,-10.38461 40.11831,-13.92264 14.50587,-3.63099 22.90813,-5.40783 39.92946,-5.44105 12.35399,-0.0241 19.93513,0.32996 29.1404,2.16981 12.86865,2.57205 23.93108,7.25443 36.77343,13.57078 8.91516,4.3848 15.99576,9.69615 23.57789,14.92371 4.88688,3.36929 18.39811,13.55431 19.10937,14.2706 0.28223,0.28424 -9.83382,1.46917 -23.74431,0.1614 l -20.87494,0.27566 -1.8139,2.84149 -0.50923,3.18871 -1.16322,19.04169 0.13448,26.32441 -6.55088,-4.52648 c -10.58608,-7.31468 -18.93459,-10.59807 -29.011,-13.98602 -5.7612,-1.93707 -9.92819,-2.85614 -14.24909,-3.22638 -6.38407,-0.54702 -26.45447,0.22005 -32.97846,0.76062 -16.4326,1.36162 -36.61624,8.75136 -50.1519,19.82911 -7.02274,5.7475 -14.92539,15.55515 -19.614,23.27792 -6.56121,10.8072 -10.28885,24.54287 -11.71119,38.55559 -0.67502,6.65012 -1.1571,28.92983 -0.48412,34.63118 2.09676,17.75284 10.85555,37.53221 22.15671,50.74078 8.79832,10.2833 17.52025,16.53178 30.36763,22.8486 16.00097,7.86739 21.92616,7.40287 49.82888,7.40287 21.00253,0 19.17311,-0.069 30.09227,-3.63484 10.66872,-3.48405 18.41379,-8.65103 28.2882,-16.06768 6.02327,-4.52407 11.74585,-8.4567 19.25556,-16.66698 11.11355,-12.15032 34.70485,-34.67211 113.88749,-112.60066 l 48.57616,-50.59335 25.53445,0.2915 25.80337,0.0998 -0.2835,25.34492 -0.40912,23.95311 -16.94512,17.04258 c -123.23215,123.86271 -133.68801,135.6082 -150.49416,153.86027 -13.49843,14.65977 -24.34318,23.12976 -37.42275,31.57572 -10.0368,6.48114 -16.78282,10.16411 -29.23702,14.31768 -12.95655,4.32109 -25.11717,6.54407 -37.39692,8.10428 -6.12117,0.77774 -36.78338,0.48087 -43.58502,-0.1216 z"
       id="path1342"
       sodipodi:nodetypes="ssssssssssssssssscccccssssssscsssssssccccccsssss"
       transform="scale(0.26458333)"
       inkscape:label="VitFyll" /><path
       style="display:inline;fill:#3a3440;stroke-width:0.265;stroke-dasharray:none;fill-opacity:1"
       d="m 136.2408,189.65418 c -7.85751,-0.82105 -16.50461,-4.58053 -23.96794,-10.42048 -2.12278,-1.66106 -6.11273,-5.56945 -7.96014,-7.79746 -2.75909,-3.32748 -6.047451,-9.17974 -7.65787,-13.62859 -2.754814,-7.6103 -3.379241,-17.01103 -1.686979,-25.39745 2.546285,-12.61872 10.413559,-23.69388 21.885109,-30.80876 10.85197,-6.730608 24.59268,-9.223599 35.57442,-6.454308 7.35983,1.855946 15.71665,6.499378 21.41068,11.896768 2.67782,2.5383 3.24998,2.30951 -5.47422,2.18898 l -7.67225,-0.10601 v 7.60691 c 0,4.1838 -0.0291,7.60685 -0.0647,7.60677 -0.0356,-8e-5 -0.99823,-0.69234 -2.13926,-1.53836 -2.19239,-1.62555 -5.83204,-3.61884 -8.25184,-4.51918 -6.6259,-2.46531 -15.2381,-1.68783 -21.92094,1.97897 -7.44878,4.08705 -11.5079,11.66743 -11.46384,21.40864 0.0597,13.20943 7.50815,22.47602 19.99891,24.88071 2.70736,0.52122 7.8762,0.53495 10.48018,0.0279 5.7969,-1.1289 11.38481,-4.55856 15.14936,-9.29814 0.57791,-0.72761 10.45552,-10.81815 21.95022,-22.42344 l 20.89946,-21.10052 h 7.77756 7.77756 v 7.74357 7.74358 l -2.93025,2.9059 c -6.07761,6.02712 -35.78712,36.2162 -40.99058,41.65226 -3.86591,4.03872 -6.22198,6.26022 -8.20208,7.73363 -6.42082,4.7778 -14.2898,7.46901 -23.8125,8.14392 -4.33822,0.30747 -5.55354,0.30387 -8.70811,-0.0257 z m 11.72745,-2.19935 c 3.90818,-0.51602 7.11045,-1.32854 11.48223,-2.91343 4.64513,-1.68399 10.57856,-5.96277 14.734,-10.62514 3.24778,-3.64398 8.11216,-8.61268 27.31312,-27.89888 l 17.79922,-17.87823 v -6.265 -6.26499 h -6.52987 -6.52987 l -16.42273,16.61115 c -18.6997,18.91423 -24.80968,25.18405 -26.84376,27.546 -2.74736,3.1902 -7.52496,6.40897 -11.4071,7.68518 -3.62148,1.19052 -3.74508,1.20663 -9.26042,1.20663 -6.85662,0 -9.30394,-0.50835 -13.88176,-2.88349 -6.71521,-3.4841 -11.35087,-9.80951 -12.9546,-17.67671 -0.60829,-2.98403 -0.5547,-10.1756 0.0991,-13.30647 1.00074,-4.79182 2.83438,-8.3669 6.05592,-11.80729 3.45581,-3.69058 7.88624,-6.09223 13.66983,-7.41013 2.20289,-0.50197 11.4602,-0.49889 13.09688,0.004 3.35215,1.03071 5.63129,2.05484 8.92969,4.01252 l 1.38906,0.82444 v -5.98699 -5.98699 l 0.66426,-0.66426 0.66426,-0.66426 5.55374,0.081 c 3.05455,0.0445 5.5536,0.061 5.55344,0.0367 -1.5e-4,-0.0243 -1.28021,-0.98136 -2.84455,-2.12672 -6.53693,-4.78609 -12.58384,-7.492339 -19.38073,-8.673689 -4.0432,-0.702738 -11.5185,-0.437303 -15.21355,0.540206 -0.7276,0.192485 -2.15635,0.557286 -3.175,0.810668 -2.1013,0.522688 -6.5996,2.264275 -9.07226,3.512475 -8.85878,4.47189 -16.47244,12.02136 -20.80995,20.63451 -2.003265,3.97796 -3.576734,9.06697 -4.263568,13.78952 -0.683618,4.70043 -0.272863,14.63121 0.678717,16.40925 0.144022,0.26911 0.261857,0.70878 0.261857,0.97704 0,1.94502 3.606804,9.96532 6.221524,13.83454 7.12134,10.53803 18.97869,18.39448 30.95243,20.50847 2.60716,0.4603 10.01155,0.46471 13.47039,0.008 z m 92.67406,2.20272 c -6.1749,-0.44264 -12.33174,-2.06627 -17.50903,-4.61732 -4.60705,-2.27007 -7.70339,-4.77084 -13.75405,-11.10851 -2.90805,-3.046 -7.19182,-7.47518 -9.51947,-9.84263 l -4.23209,-4.30444 7.73617,-7.7341 7.73617,-7.7341 6.01664,6.11131 c 3.30914,3.36122 6.90579,7.09705 7.99253,8.30184 3.68207,4.08203 8.48611,6.82121 13.76681,7.84958 2.5426,0.49515 7.73153,0.4888 10.45104,-0.0128 12.3945,-2.28606 19.96838,-11.70073 20.02805,-24.89577 0.0368,-8.12727 -2.81523,-14.86193 -8.10976,-19.15036 -6.67108,-5.40341 -17.30719,-7.20123 -25.21061,-4.26135 -2.92822,1.08923 -6.02836,2.82361 -8.84644,4.94917 -0.82569,0.62278 -1.54006,1.13239 -1.5875,1.13247 -0.0474,8e-5 -0.0862,-3.42297 -0.0862,-7.60677 v -7.60691 l -7.67225,0.10601 c -8.68939,0.12005 -8.13658,0.31936 -5.63365,-2.03107 5.99108,-5.62604 14.1428,-10.181714 21.57012,-12.054677 10.98174,-2.769291 24.72244,-0.2763 35.57442,6.454307 15.58439,9.66575 24.13473,26.33665 22.69936,44.25774 -0.93236,11.64072 -5.70497,21.59245 -14.44727,30.1251 -7.84569,7.65753 -18.17339,12.68966 -28.10782,13.6954 -3.04432,0.30821 -4.29043,0.30509 -8.85513,-0.0221 z m -70.36216,-55.46395 -4.95833,-4.96349 v -7.73651 -7.73652 h 7.74168 7.74167 l 5.02231,5.02753 5.02231,5.02754 -7.66904,7.67246 c -4.21798,4.21986 -7.73052,7.67247 -7.80566,7.67247 -0.0751,0 -2.36786,-2.23357 -5.09494,-4.96348 z"
       id="path425"
       inkscape:label="SvartLinje" /></g><g
     inkscape:groupmode="layer"
     id="layer4"
     inkscape:label="Skata"><path
       style="fill:#9f9679;stroke-width:0.210538;stroke-dasharray:none;fill-opacity:1"
       d="m 269.35018,688.3997 c -1.48298,0.56098 -0.51912,2.37216 -0.27631,3.42942 1.56256,5.73246 5.93149,10.08915 10.15985,14.01057 4.27105,3.93269 9.48391,6.57705 14.24707,9.83353 6.75305,4.32411 14.11903,7.55892 21.41901,10.82361 4.36341,1.97744 7.96218,5.72643 12.8634,6.56522 8.70817,1.7931 17.66506,1.49091 26.50564,1.75971 6.73449,0.004 13.50511,0.35518 20.21477,-0.34897 1.42576,-0.0454 2.37799,-1.28523 2.5545,-2.61527 0.79558,-2.50572 3.38795,-3.88628 4.33141,-6.27213 0.16486,-1.70413 -2.02441,-1.85973 -3.20237,-2.19116 -9.02044,-1.76589 -18.07508,-3.20637 -26.99328,-5.40753 -4.93014,-1.10538 -9.76693,-2.46426 -14.59451,-3.96931 -2.20291,-0.21248 -4.33838,-0.79748 -6.40056,-1.6114 -12.67089,-4.80153 -25.00302,-10.45776 -37.73448,-15.10867 -7.63645,-2.65655 -15.05844,-5.88539 -22.56821,-8.87791 -0.17495,-0.003 -0.35151,-0.0227 -0.52593,-0.0197 z"
       id="path1438"
       transform="scale(0.26458333)" /><path
       style="fill:#9f9679;stroke-width:0.210538;stroke-dasharray:none;fill-opacity:1"
       d="m 290.60489,670.42783 c -1.45072,0.32667 -0.73351,1.98266 -0.0641,2.71997 2.72634,4.25023 6.28174,7.88439 10.25129,10.98208 2.48365,2.10829 4.11812,4.94118 5.894,7.61548 3.13055,4.1336 8.05201,6.2385 12.15568,9.1993 5.73028,3.63104 11.15401,7.80308 17.23752,10.84248 8.31853,3.70236 17.44747,4.90411 26.30031,6.6979 6.95315,1.20808 13.88441,2.70772 20.91664,3.35152 1.53691,-0.11828 3.82155,0.2096 4.43488,-1.64019 0.43672,-2.3715 3.2299,-3.1681 4.14214,-5.25558 0.25343,-1.12442 -1.02998,-1.69862 -1.95427,-1.46899 -5.78364,-1.30382 -11.26149,-3.62286 -17.0151,-5.07165 -10.16919,-2.87617 -20.57959,-4.73827 -30.95106,-6.70099 -2.29068,-0.49225 -4.66649,-1.07646 -6.45772,-2.67908 -1.97614,-0.97034 -4.14808,-1.35925 -6.078,-2.47405 -6.04864,-3.01985 -12.12561,-6.06528 -17.75312,-9.82747 -6.92609,-5.13964 -13.60526,-10.59412 -20.25362,-16.08627 -0.24164,-0.15583 -0.51635,-0.23186 -0.80552,-0.20446 z"
       id="path1440"
       transform="scale(0.26458333)" /><path
       style="fill:#9f9679;stroke-width:0.210538;stroke-dasharray:none;fill-opacity:1"
       d="m 324.41782,665.57747 c -1.3437,0.34819 -0.7759,1.91437 -0.0184,2.56181 6.98298,7.95065 14.71909,15.21183 22.58623,22.27641 4.81055,4.23958 10.03258,7.97614 15.08706,11.91092 3.03009,1.71699 6.44675,2.65559 9.66451,3.968 9.35203,3.33213 18.63474,6.85235 27.85722,10.52623 2.10373,0.73745 4.46748,1.8115 6.68052,0.92736 0.7465,-1.31355 -0.28676,-3.0229 0.79197,-4.29446 0.85187,-1.45174 2.51428,-2.40118 3.13304,-3.93872 0.12747,-1.40838 -1.77233,-1.50418 -2.64207,-2.15584 -6.81174,-3.18618 -13.547,-6.56386 -20.47418,-9.48785 -1.2612,-0.31911 -1.73621,1.36733 -0.92704,2.1304 2.10453,2.89167 5.50466,4.41775 8.5411,6.11553 0.78482,0.40516 1.69053,0.90663 2.33998,1.35831 -3.77583,-1.8026 -7.61868,-3.47574 -11.63213,-4.68959 -8.28867,-2.79299 -16.90855,-4.92878 -24.64457,-9.06377 -10.27521,-5.01318 -18.82881,-12.91726 -27.08777,-20.69612 -2.80535,-2.46817 -5.4352,-5.18936 -8.50166,-7.33161 -0.23321,-0.1145 -0.49562,-0.16617 -0.75379,-0.11701 z"
       id="path1442"
       transform="scale(0.26458333)" /><path
       style="fill:#9f9679;stroke-width:0.210538;stroke-dasharray:none;fill-opacity:1"
       d="m 268.76308,730.8771 c -1.56564,0.0315 -1.69239,2.01977 -0.85643,2.98354 3.98851,6.02709 10.71773,9.36053 17.04702,12.3835 5.72031,2.82366 11.86242,4.60742 18.05698,6.04308 5.26504,1.34996 10.65699,2.42266 15.53616,4.90352 2.8018,1.42242 5.25313,3.89443 8.49408,4.21973 7.55685,-0.58758 15.06887,-1.68596 22.46199,-3.36524 8.21011,-1.80544 16.47988,-3.42886 24.56195,-5.75207 2.10532,-0.97459 1.45994,-3.73945 2.64401,-5.3886 1.65147,-2.9301 4.76287,-4.9522 5.80984,-8.22147 0.0667,-1.63687 -1.89525,-1.83959 -3.11655,-1.83501 -10.68552,-0.42325 -21.356,0.23693 -32.04174,0.0142 -5.15718,-0.007 -10.29551,-0.17162 -15.44607,-0.55159 -10.46991,-0.1487 -20.94904,0.55605 -31.3704,-0.72568 -8.76708,-0.96246 -17.66917,-1.50723 -26.24895,-3.28158 -1.87471,-0.35253 -3.62872,-1.2552 -5.53189,-1.42629 z"
       id="path1445"
       transform="scale(0.26458333)" /><path
       style="fill:#9f9679;stroke-width:0.210538;stroke-dasharray:none;fill-opacity:1"
       d="m 382.23663,753.01246 c -10.36539,1.32641 -20.57149,3.91391 -30.78875,6.1465 -6.21663,1.35155 -12.08327,3.90175 -18.25844,5.41611 -9.39415,2.42517 -18.82625,4.89717 -27.95967,8.24126 -6.37491,2.3837 -12.90038,4.62328 -18.72556,8.20292 -1.32743,0.6755 -2.6979,2.50867 -1.3647,3.84038 3.15088,2.7349 7.41284,3.65019 11.36062,4.63071 6.93683,1.62766 14.18631,1.7551 20.90409,4.15446 5.43673,0.50462 10.81942,-0.95642 16.05824,-2.23124 10.24973,-2.76308 19.77853,-7.53603 29.60977,-11.43727 4.90827,-2.16101 10.03385,-3.92607 14.65891,-6.67065 1.32282,-0.72579 1.91771,-2.14003 2.17227,-3.55094 1.50065,-4.17893 3.4431,-8.32613 3.50783,-12.85546 -0.0998,-1.2313 0.71531,-3.24966 -0.8166,-3.85434 -0.11684,-0.0293 -0.23799,-0.0385 -0.35801,-0.0324 z"
       id="path1447"
       transform="scale(0.26458333)" /><path
       style="fill:#9f9679;stroke-width:0.210538;stroke-dasharray:none;fill-opacity:1"
       d="m 388.96489,771.20562 c -7.04909,2.53293 -13.59208,6.34946 -20.73965,8.64624 -13.67891,5.32773 -26.9775,11.57816 -40.25394,17.82676 -6.74548,3.20901 -13.51466,6.73973 -18.7838,12.15197 -1.58282,1.51724 -3.36173,3.83715 -2.18729,6.10066 1.9428,3.39946 4.80886,6.26169 7.98533,8.52683 3.51436,2.54659 8.08664,3.00763 12.24257,2.12844 7.7946,-1.62419 15.14052,-4.86153 22.37899,-8.09403 12.48845,-5.88033 24.80869,-12.60094 35.09166,-21.92286 1.81397,-1.49492 2.99393,-3.67362 3.02337,-6.04632 0.45051,-5.34715 0.0449,-10.82761 2.10412,-15.89936 0.37181,-1.13043 1.12527,-3.42665 -0.86136,-3.41833 z"
       id="path1449"
       transform="scale(0.26458333)" /><path
       style="fill:#9f9679;stroke-width:0.210538;stroke-dasharray:none;fill-opacity:1"
       d="m 392.83894,793.34181 c -2.21759,0.82606 -3.9667,2.59745 -5.9351,3.87914 -12.08238,9.19857 -25.30795,16.96872 -39.15471,23.23234 -5.17504,2.35364 -10.72427,4.05936 -15.51875,7.1896 -2.32174,0.95756 -5.54991,0.0547 -7.161,2.42847 -1.30965,1.90838 -0.85455,4.37841 -0.62446,6.53202 1.8538,5.53274 6.54086,9.91132 11.90379,12.03762 3.7095,1.60204 7.67621,-0.15954 11.01811,-1.81727 14.49139,-7.42134 27.15008,-17.87536 39.22754,-28.67712 2.78132,-2.69213 5.89218,-5.16974 8.05515,-8.41359 1.34168,-2.19729 0.38611,-4.75196 -0.19351,-7.0133 -0.65737,-2.87032 -0.0433,-5.84626 -0.48556,-8.72307 -0.17789,-0.43669 -0.66591,-0.71233 -1.1315,-0.65484 z"
       id="path1451"
       transform="scale(0.26458333)" /><path
       style="fill:#9f9679;stroke-width:0.210538;stroke-dasharray:none;fill-opacity:1"
       d="m 399.40832,811.2406 c -3.35471,0.76472 -5.90955,3.34979 -8.54911,5.40015 -11.82195,10.13028 -23.36687,20.8035 -37.04103,28.41976 -2.51196,1.52927 -5.49385,2.50486 -7.54792,4.65757 -0.58226,1.20543 0.63688,2.46053 0.97505,3.63686 2.02651,3.94935 3.6047,8.61915 7.59134,11.05364 1.34215,0.70304 2.86481,1.60325 4.4164,1.37784 3.41858,-1.9679 6.2719,-4.78651 9.34449,-7.23918 8.75576,-7.51839 17.43925,-15.11343 26.84839,-21.79246 1.76971,-1.50303 4.03128,-2.77218 5.00726,-4.97015 0.76006,-3.69384 0.54134,-7.51882 0.72587,-11.27112 -0.0838,-2.85963 0.15852,-5.82178 -0.60804,-8.60082 -0.20029,-0.44172 -0.6854,-0.70249 -1.1627,-0.67209 z"
       id="path1453"
       transform="scale(0.26458333)" /><path
       style="fill:#9f9679;stroke-width:0.210538;stroke-dasharray:none;fill-opacity:1"
       d="m 401.49027,835.65868 c -2.88782,0.59113 -5.29162,2.51963 -7.75795,4.03786 -7.6741,5.33218 -14.61031,11.63928 -21.54965,17.87481 -1.70095,1.73877 -3.80977,3.20803 -5.06657,5.31281 -0.12461,1.43625 1.38347,2.33409 2.28518,3.24549 2.50008,1.77197 5.37695,3.14099 8.39473,3.72624 1.75919,-0.10197 3.00773,-1.68377 4.39479,-2.60858 4.85043,-4.09113 9.68233,-8.2944 13.73925,-13.19348 3.7998,-4.84989 6.43364,-10.67177 7.35888,-16.76769 0.0897,-1.00419 -0.83115,-1.76914 -1.79866,-1.62746 z"
       id="path1455"
       transform="scale(0.26458333)" /><path
       style="fill:#9f9679;stroke-width:0.210538;stroke-dasharray:none;fill-opacity:1"
       d="m 664.30227,747.91864 c -2.30203,0.89575 -2.8569,3.65006 -2.96712,5.86198 -0.37576,5.67444 -0.13584,11.66577 -3.11574,16.73239 -2.74628,4.81461 -6.36617,9.1032 -10.68583,12.58767 -4.39381,3.11046 -9.39047,5.28328 -14.41378,7.16308 -3.56931,1.29678 -7.34932,1.91362 -10.85439,3.41717 -3.94327,0.58318 -7.89153,0.069 -11.79868,-0.4122 -9.3614,-1.45248 -18.66386,-4.74213 -26.20936,-10.54689 -5.12713,-4.20191 -9.75102,-9.43844 -12.00314,-15.72651 -1.82448,-5.15815 -0.9351,-10.76551 -2.02447,-16.07262 -0.41485,-1.3147 -1.41597,-3.04469 -2.97657,-2.97328 -1.56372,0.65175 -1.64263,2.70052 -2.12957,4.10068 -1.27275,6.58778 -1.41759,13.33291 -1.91116,20.00973 -0.93495,17.24459 -1.66166,34.5059 -1.91877,51.77468 -0.13264,12.93169 0.71187,26.02137 4.50982,38.45556 2.90835,10.06859 7.29348,19.66635 12.35581,28.82216 1.09994,1.60664 1.86926,3.69261 3.61786,4.70585 1.42692,0.47623 1.97202,-1.21291 2.06635,-2.29463 1.10799,-4.03081 3.87066,-7.6154 3.989,-11.89311 -0.3098,-3.59531 -2.35596,-6.7442 -3.22022,-10.20978 -0.55412,-2.18685 -1.04305,-4.92433 0.80449,-6.59938 1.85464,-0.83156 3.80984,0.631 5.32471,1.60681 3.2758,2.12431 5.73359,5.65191 9.63487,6.69636 5.50883,1.11289 11.17994,0.94034 16.76862,1.27365 5.75861,0.18071 11.51817,0.52722 17.26453,0.70012 3.02986,-1.15642 4.42855,-4.39388 6.61318,-6.58394 2.02343,-2.11502 4.43388,-4.87973 7.67622,-4.44761 1.85338,0.46348 2.55747,2.56976 2.26301,4.29323 -0.76833,6.14054 -3.67518,11.7632 -4.83846,17.81052 -0.40729,1.80777 0.30106,3.52958 1.21198,5.05605 0.53094,1.19926 1.23514,2.45995 1.05267,3.80466 0.35448,1.50086 2.26773,0.89337 2.84437,-0.11372 3.52568,-4.54306 5.85021,-9.87856 8.31639,-15.0382 6.16504,-13.25648 10.18568,-27.61934 10.84591,-42.26523 0.72251,-15.84535 -0.16017,-31.70595 -0.71586,-47.54263 -0.57831,-11.8359 -0.94238,-23.70491 -2.33849,-35.48012 -0.43471,-2.16481 -0.63307,-4.61398 -2.06474,-6.38716 -0.26134,-0.2341 -0.6276,-0.33926 -0.97344,-0.28534 z"
       id="path1457"
       transform="scale(0.26458333)" /><path
       style="fill:#9f9679;stroke-width:0.210538;stroke-dasharray:none;fill-opacity:1"
       d="m 830.06192,835.5273 c -1.60722,0.0663 -1.52526,2.03806 -1.14506,3.14653 1.25399,5.92768 3.83003,11.60246 7.86748,16.15835 4.20312,4.74867 8.76959,9.25963 13.97549,12.90739 2.17094,1.63328 5.2093,2.32486 7.68413,0.93801 2.28037,-1.17536 4.65901,-2.63442 5.99089,-4.88813 0.36387,-1.67475 -1.35505,-2.84086 -2.2745,-4.00666 -6.97994,-6.94093 -14.68917,-13.11686 -22.5681,-19.00155 -2.92596,-1.95127 -5.71472,-4.46574 -9.23062,-5.24368 -0.0995,-0.0101 -0.19972,-0.0136 -0.29971,-0.0103 z"
       id="path1467"
       transform="scale(0.26458333)" /><path
       style="fill:#9f9679;stroke-width:0.210538;stroke-dasharray:none;fill-opacity:1"
       d="m 832.57208,811.30259 c -1.75353,0.24007 -1.50381,2.43999 -1.59247,3.7364 -0.0621,5.47631 -0.17958,10.98547 0.38748,16.43772 0.91817,2.32323 3.28117,3.64137 5.09219,5.21086 7.97402,5.72175 15.54629,11.97433 22.91314,18.4538 4.27754,3.54194 8.32102,7.42868 12.98953,10.46029 1.47749,0.76923 3.07333,-0.42026 4.45417,-0.92909 2.3589,-1.50306 3.73162,-4.1114 5.31347,-6.34111 1.45653,-2.48693 3.24291,-4.96529 3.74513,-7.85402 -0.3108,-1.87454 -2.54194,-2.44579 -3.90976,-3.39287 -14.96852,-7.49016 -27.38148,-18.91138 -39.97098,-29.71476 -2.71847,-2.13631 -5.28954,-4.66379 -8.55069,-5.94774 -0.28257,-0.0788 -0.57643,-0.13734 -0.87121,-0.11948 z"
       id="path1469"
       transform="scale(0.26458333)" /><path
       style="fill:#9f9679;stroke-width:0.210538;stroke-dasharray:none;fill-opacity:1"
       d="m 838.96574,793.35659 c -1.57225,0.30455 -0.93458,2.32805 -1.12822,3.46102 -9.1e-4,2.77209 0.0734,5.5802 -0.84838,8.25074 -0.66769,2.16544 -0.21681,4.64039 1.47982,6.21659 6.34579,6.77971 13.5236,12.72376 20.68754,18.61077 8.48867,6.78456 17.46634,13.1059 27.32151,17.75199 2.88995,1.41418 6.33151,2.26591 9.41439,0.91653 4.19892,-1.75367 7.48802,-5.11016 10.48243,-8.43537 1.86807,-2.33858 1.30201,-5.52909 1.27109,-8.29784 -0.15263,-2.31889 -2.54137,-3.52854 -4.6264,-3.58289 -1.90866,-0.061 -3.8089,-0.55945 -5.27509,-1.83897 -5.48575,-2.9774 -11.5002,-4.82514 -17.08286,-7.61154 -12.09321,-5.82082 -23.739,-12.59719 -34.44649,-20.76722 -2.29673,-1.56041 -4.40785,-3.49909 -6.94594,-4.64959 -0.0994,-0.0207 -0.20196,-0.0284 -0.3034,-0.0242 z"
       id="path1471"
       transform="scale(0.26458333)" /><path
       style="fill:#9f9679;stroke-width:0.210538;stroke-dasharray:none;fill-opacity:1"
       d="m 842.88454,771.27296 c -1.62469,0.20656 -1.14516,2.17475 -0.73671,3.2136 2.07378,5.18114 1.70942,10.77564 2.13672,16.23875 0.036,2.30513 1.23346,4.38458 2.99385,5.81837 7.34041,6.79095 15.93911,12.05604 24.61721,16.94752 6.55274,3.62845 13.34525,6.84161 20.45172,9.23323 4.88094,1.82301 9.72646,4.34162 15.08099,4.18562 3.5893,-0.0325 7.51671,-0.41727 10.29152,-2.9544 2.88412,-2.46898 5.78031,-5.16288 7.53378,-8.57907 0.84678,-1.9915 -1.10033,-3.69731 -2.20142,-5.12338 -4.24392,-4.88591 -9.91824,-8.17704 -15.69936,-10.9164 -13.80919,-6.71238 -27.78968,-13.08893 -41.97872,-18.95803 -2.36232,-1.02439 -4.9106,-1.46048 -7.21713,-2.63496 -5.02171,-2.08461 -9.84323,-4.69101 -14.98588,-6.46018 -0.0949,-0.0122 -0.19102,-0.0168 -0.28657,-0.0107 z"
       id="path1473"
       transform="scale(0.26458333)" /><path
       style="fill:#9f9679;stroke-width:0.210538;stroke-dasharray:none;fill-opacity:1"
       d="m 848.91115,753.12824 c -0.93746,1.16022 -0.24352,2.83456 -0.28451,4.21728 0.18183,3.68809 1.40517,7.18249 2.80511,10.56223 0.861,1.9394 0.89623,4.70597 3.19356,5.59898 9.33238,4.76357 19.18124,8.38422 28.77686,12.56484 8.14359,3.33682 16.5518,6.25623 25.28082,7.56831 3.50163,0.43526 6.98802,-0.28899 10.32678,-1.29089 7.99979,-1.88303 16.63703,-1.44267 24.07893,-5.35081 1.48608,-0.83693 3.71143,-1.67335 3.83799,-3.64982 -0.43082,-1.89309 -2.55054,-2.70176 -4.00666,-3.69135 -8.41609,-4.51972 -17.53793,-7.55019 -26.63822,-10.36314 -8.74406,-2.74954 -17.77887,-4.43438 -26.45444,-7.38882 -7.36189,-2.80848 -15.2144,-3.94075 -22.8516,-5.74988 -5.8278,-1.21709 -11.67735,-2.6078 -17.60198,-3.12816 -0.15421,0.0337 -0.30843,0.0675 -0.46264,0.10123 z"
       id="path1475"
       transform="scale(0.26458333)" /><path
       style="fill:#9f9679;stroke-width:0.421076;stroke-dasharray:none;fill-opacity:1"
       d="m 963.31914,730.92555 c -5.36657,1.53742 -10.8623,2.65868 -16.42636,3.11626 -13.61915,1.53082 -27.17161,3.03654 -40.8772,2.56343 -18.41301,0.0773 -36.85218,-0.13289 -55.24664,0.59285 -2.20719,1.07403 -0.2098,3.63966 0.84001,4.81833 2.14198,2.51789 4.54931,5.13237 4.87992,8.54623 1.99578,2.63396 5.87948,2.49338 8.76934,3.51272 13.32306,3.09613 26.73595,6.40589 40.37145,7.5486 4.26462,-2.10544 8.0476,-5.25013 12.73526,-6.51084 10.13392,-3.11717 20.8454,-4.93127 30.4055,-9.82785 6.01999,-3.02835 12.4967,-6.65597 15.73359,-12.82342 0.26104,-0.76576 -0.35885,-1.62955 -1.18487,-1.53631 z"
       id="path1477"
       transform="scale(0.26458333)" /><path
       style="fill:#9f9679;stroke-width:0.421076;stroke-dasharray:none;fill-opacity:1"
       d="m 962.04065,688.77988 c -9.04442,3.24192 -17.84183,7.11699 -26.91118,10.33865 -12.69348,4.57104 -24.76312,10.98885 -37.68967,14.78683 -6.98961,1.41559 -13.72681,3.82354 -20.75163,5.11451 -8.25458,2.04238 -16.80515,2.82773 -24.98233,5.20451 -2.21232,1.19222 0.31354,3.33753 1.30476,4.49317 2.00384,1.81943 2.12759,6.05393 5.55242,5.87266 14.38757,0.21042 28.86767,0.55649 43.17863,-1.2013 5.06047,-0.43035 9.25731,-3.3808 13.27013,-6.16005 5.41756,-2.61022 11.12824,-4.66147 16.35339,-7.70416 10.55256,-5.87578 21.53093,-12.14986 28.84717,-22.02978 1.43853,-2.39778 2.91951,-5.13058 2.90562,-7.97521 -0.13596,-0.42069 -0.63179,-0.77496 -1.07731,-0.73983 z"
       id="path1479"
       transform="scale(0.26458333)" /><path
       style="fill:#9f9679;stroke-width:0.421076;stroke-dasharray:none;fill-opacity:1"
       d="m 939.7776,672.01588 c -4.24451,2.26436 -7.54122,6.07306 -11.56853,8.73074 -8.83813,6.3362 -17.81181,12.86538 -27.88057,17.16495 -3.61748,0.6991 -6.47921,3.42383 -10.22377,3.84038 -15.9907,3.18359 -32.35926,5.95598 -47.44354,12.43751 -1.94311,0.7552 -0.88499,2.91751 0.4081,3.74924 1.33579,1.11702 1.10036,3.88182 3.45035,3.72707 9.01209,-0.21778 17.82833,-2.58381 26.70106,-4.0063 9.93757,-1.97551 20.43687,-3.53625 28.8535,-9.63991 7.25154,-4.75248 14.798,-9.16891 21.55196,-14.61348 3.10509,-3.79136 5.83351,-7.93048 9.66213,-11.08267 2.66845,-2.87804 6.07942,-5.47945 7.64956,-9.13825 0.0653,-0.6423 -0.51086,-1.23473 -1.16025,-1.16928 z"
       id="path1481"
       transform="scale(0.26458333)" /><path
       style="display:inline;fill:#9f9679;stroke-width:0.421076;stroke-dasharray:none;fill-opacity:1"
       d="m 906.19869,666.64165 c -3.59063,1.94754 -6.23339,5.40332 -9.39553,7.98314 -9.38035,8.86387 -19.6188,17.53436 -31.78942,21.95492 -10.01921,3.87201 -20.50691,6.70114 -30.39871,11.00712 3.54807,-2.50735 8.19561,-3.84488 10.84126,-7.42047 0.54146,-2.15995 -2.21325,-1.7274 -3.29598,-0.89173 -6.48823,2.94744 -13.02288,6.0222 -19.21214,9.45457 -0.74973,1.82566 1.66868,3.29242 2.20427,5.02671 0.63288,1.35427 -0.0269,3.91098 2.23837,3.82478 7.12862,-0.17768 13.26299,-4.52968 19.85329,-6.74544 7.43842,-3.16477 15.49501,-5.02732 22.68569,-8.80248 13.63829,-9.66275 25.89187,-21.18869 37.17296,-33.48448 0.68427,-0.72112 0.13478,-2.04482 -0.90406,-1.90664 z"
       id="path1483"
       transform="scale(0.26458333)" /><path
       style="display:inline;fill:#3a3440;stroke-width:0.264583;fill-opacity:1"
       d="m 161.55326,325.07546 c -1.9038,-1.95887 -2.89498,-5.24614 -3.21458,-10.66121 l -0.17568,-2.97657 h -0.8799 c -1.46459,0 -2.12901,-0.40222 -2.59717,-1.57225 -0.56686,-1.41674 -0.54722,-2.56473 0.0953,-5.5715 0.60082,-2.8115 0.63928,-3.26528 0.21304,-2.51354 -0.74783,1.3189 -2.71658,3.6359 -3.59877,4.23537 -1.09032,0.74088 -2.28445,0.84002 -3.583,0.29745 -2.17452,-0.90857 -3.31636,-8.14125 -1.87731,-11.89135 0.11592,-0.30209 -0.19559,-0.59505 -1.14353,-1.07541 -1.37294,-0.69572 -2.8429,-2.16433 -3.25732,-3.25434 -0.3604,-0.94793 -0.30296,-2.51268 0.1683,-4.58465 l 0.41516,-1.8253 -0.67974,-1.00032 c -1.18029,-1.73696 -0.92061,-5.16027 0.82926,-10.93166 1.22347,-4.03523 2.94001,-9.20912 3.35229,-10.10426 1.8322,-3.97805 3.25387,-7.77481 4.02674,-10.754 0.97024,-3.73996 1.8148,-5.71229 3.05365,-7.1312 0.9674,-1.108 2.1161,-3.36228 1.94265,-3.81236 -0.14341,-0.37214 -2.31229,-0.49169 -2.66005,-0.14662 -0.10999,0.10914 -0.50921,0.19844 -0.88717,0.19844 -0.56696,0 -0.80011,0.23786 -1.33266,1.35955 -1.19125,2.50912 -3.00311,2.89829 -6.59862,1.41731 -1.68579,-0.69436 -1.69903,-0.69543 -2.38125,-0.19105 -1.292,0.9552 -2.39359,1.38977 -3.92996,1.55035 -1.98667,0.20765 -3.96906,-0.57412 -4.87532,-1.92263 -0.59816,-0.89006 -0.64196,-0.90648 -1.93493,-0.72533 -1.97162,0.27624 -4.59825,0.12941 -5.43616,-0.30389 -0.4069,-0.21041 -0.9955,-0.74163 -1.30799,-1.18048 -0.56129,-0.78827 -0.5899,-0.79589 -2.36834,-0.6306 -1.58524,0.14734 -1.97955,0.0852 -3.30245,-0.52045 -0.82624,-0.37827 -1.8237,-0.91362 -2.21658,-1.18967 -0.47256,-0.33206 -1.3434,-0.54542 -2.57313,-0.63044 -2.40078,-0.16599 -3.19539,-0.60879 -4.22301,-2.35329 l -0.84014,-1.42626 -2.62444,0.0898 c -2.8217,0.0966 -3.78996,-0.12877 -4.87338,-1.13419 -0.532871,-0.49451 -1.051709,-0.64021 -2.668879,-0.74945 -1.373394,-0.0928 -2.483122,-0.3532 -3.513571,-0.82454 -0.828384,-0.37891 -1.789684,-0.68893 -2.136225,-0.68893 -0.900845,0 -3.5687,-1.03535 -4.580044,-1.77744 -0.473095,-0.34714 -1.027252,-0.95426 -1.231459,-1.34915 -0.216937,-0.41951 -0.849269,-0.92234 -1.521076,-1.20956 -0.632385,-0.27036 -1.63209,-0.69783 -2.221566,-0.94993 -1.534262,-0.65616 -3.029266,-2.04351 -3.029266,-2.81112 0,-0.4239 0.153466,-0.63716 0.463021,-0.64343 0.254661,-0.005 0.760677,-0.19042 1.124479,-0.4117 0.622476,-0.37861 0.55684,-0.39329 -1.113743,-0.24894 -1.471521,0.12715 -1.946098,0.0618 -2.774206,-0.38205 -0.549454,-0.29448 -1.220901,-0.53543 -1.492105,-0.53543 -0.271205,0 -0.898046,-0.19216 -1.392981,-0.42702 -0.652716,-0.30974 -0.899882,-0.60042 -0.899882,-1.05833 0,-0.35975 0.156738,-0.63132 0.364368,-0.63132 0.200403,0 2.016106,-0.84267 4.034896,-1.8726 3.494907,-1.78301 5.654903,-3.36812 5.654903,-4.14983 0,-0.19734 -0.0893,-0.30506 -0.198438,-0.23938 -0.518375,0.31194 -6.728591,0.44536 -8.532367,0.18331 -3.478255,-0.50532 -7.937945,-1.93584 -7.937945,-2.54623 0,-0.59081 1.481967,-1.35235 4.365625,-2.24335 1.455208,-0.44963 3.419739,-1.05926 4.365625,-1.35474 0.945885,-0.29547 2.196041,-0.80885 2.778125,-1.14083 0.582083,-0.33198 1.594114,-0.74433 2.248958,-0.91633 0.654844,-0.172 2.024063,-0.56989 3.042708,-0.8842 l 1.852084,-0.57146 -1.5875,-0.17326 c -0.873125,-0.0953 -2.333842,-0.18617 -3.246038,-0.20197 -3.37249,-0.0584 -10.259196,-2.82041 -12.960738,-5.19811 -1.462283,-1.28699 -3.888331,-4.74265 -3.626737,-5.16591 0.234534,-0.37949 1.183781,-0.29817 2.91495,0.24972 3.888646,1.23069 7.225082,1.90893 11.891479,2.41734 2.764896,0.30124 5.250353,0.61477 5.523238,0.69674 0.322137,0.0968 0.432658,0.0463 0.315114,-0.1439 -0.09957,-0.16111 -0.33499,-0.29292 -0.523151,-0.29292 -0.566175,0 -6.167512,-2.83556 -9.416242,-4.76678 -4.269954,-2.53828 -6.66887,-4.81814 -8.237724,-7.82889 -2.576771,-4.94501 -2.356466,-5.8852 0.721059,-3.07722 2.401776,2.19141 6.279715,4.26548 10.788661,5.77018 1.581317,0.52771 3.890597,1.4264 5.131734,1.9971 1.241138,0.57069 2.295316,0.99892 2.342618,0.95162 0.0473,-0.0473 -0.714165,-0.54492 -1.692151,-1.10582 -2.798743,-1.60515 -5.516062,-3.8081 -8.539143,-6.92275 -2.902029,-2.98994 -3.64938,-4.16644 -4.339039,-6.83066 -0.302819,-1.16982 -0.328809,-1.62096 -0.101478,-1.76146 0.488724,-0.30204 0.834919,-0.0446 1.62999,1.21214 0.79548,1.25738 3.63147,4.02032 6.290736,6.1287 0.891329,0.70668 2.250784,1.82066 3.021009,2.4755 2.076644,1.76556 5.673141,3.56576 8.689257,4.34935 1.434758,0.37276 2.786009,0.67773 3.002777,0.67773 0.216768,0 -0.302281,-0.52764 -1.153446,-1.17254 -2.864104,-2.17003 -9.141974,-9.11972 -10.630371,-11.76796 -0.527796,-0.93909 -0.554527,-1.10668 -0.198316,-1.24337 0.272088,-0.10441 0.883753,0.32271 1.803702,1.25952 4.11759,4.19306 9.503976,8.88726 11.4232,9.95525 1.988426,1.1065 6.344411,2.70243 5.747871,2.10588 -0.376122,-0.37612 -0.391071,-1.16651 -0.0263,-1.39194 0.15104,-0.0933 2.0777,0.688 4.28147,1.73631 3.50184,1.66581 7.25601,3.16469 7.92643,3.16469 0.12046,0 -0.25758,-0.43057 -0.84009,-0.95683 -0.5825,-0.52626 -1.05909,-1.0493 -1.05909,-1.16232 0,-0.51464 0.92932,-0.46716 2.06485,0.10549 2.22594,1.12256 6.32155,2.62929 7.85702,2.89051 2.60567,0.44328 5.65306,1.01363 7.82726,1.46494 1.37032,0.28445 4.45602,0.7741 6.85712,1.08811 2.40109,0.31401 4.96093,0.68753 5.68854,0.83005 0.7276,0.14252 2.57307,0.36953 4.10104,0.50445 1.52797,0.13493 3.25438,0.38047 3.83646,0.54564 0.58208,0.16517 1.48717,0.3585 2.01131,0.4296 l 0.95297,0.12929 1.092,-2.60374 c 1.28324,-3.05971 1.73377,-4.89445 2.2719,-9.2521 0.46685,-3.78041 0.95282,-5.18158 2.79102,-8.04717 2.40503,-3.74924 2.94813,-5.24486 4.39146,-12.09353 0.0785,-0.37243 0.3198,-0.59531 0.64455,-0.59531 0.32474,0 0.56605,0.22288 0.64454,0.59531 1.44333,6.84867 1.98643,8.34429 4.39147,12.09353 1.7709,2.76069 2.35276,4.34521 2.67143,7.2749 0.43582,4.00657 1.20518,7.23026 2.385,9.99332 l 1.12401,2.63236 0.94021,-0.13118 c 0.51712,-0.0722 1.71412,-0.31637 2.66,-0.54271 0.94589,-0.22634 2.4937,-0.41699 3.43959,-0.42368 0.94588,-0.007 2.30426,-0.18946 3.01861,-0.40617 0.71435,-0.21671 1.80511,-0.39401 2.4239,-0.39401 1.23424,0 8.34704,-1.07363 11.49082,-1.73445 1.72659,-0.36293 4.70002,-0.91799 7.26073,-1.35538 0.42814,-0.0731 1.35088,-0.3586 2.05052,-0.63438 0.69965,-0.27577 1.27208,-0.45031 1.27208,-0.38785 0,0.14542 2.046,-0.7215 4.15454,-1.76035 1.51582,-0.74683 2.46005,-0.84359 2.46005,-0.2521 0,0.13315 -0.4766,0.67267 -1.0591,1.19893 -0.5825,0.52626 -0.96054,0.95683 -0.84009,0.95683 0.69717,0 4.48831,-1.52745 7.82424,-3.15239 2.11678,-1.03108 3.95674,-1.8747 4.0888,-1.8747 0.13206,0 0.38832,0.1786 0.56948,0.39688 0.26278,0.31663 0.26278,0.47712 0,0.79375 -0.43336,0.52217 -0.0183,0.52217 1.23143,0 0.52243,-0.21828 1.12342,-0.39688 1.33555,-0.39688 0.21212,0 1.40458,-0.56554 2.64991,-1.25677 2.23921,-1.24288 4.09515,-2.83992 10.68868,-9.19761 3.79649,-3.6607 4.18848,-2.49743 0.62523,1.85543 -1.62474,1.98478 -3.38049,4.06276 -4.39478,5.20136 -0.95685,1.07412 -4.23164,3.9469 -5.12456,4.49547 -2.09574,1.28754 4.2729,-0.43053 7.22926,-1.95023 3.18162,-1.6355 11.39336,-8.31865 13.02697,-10.60204 1.25641,-1.75616 1.57524,-2.0828 1.9153,-1.96225 0.64639,0.22917 -0.0551,3.28986 -1.19512,5.21456 -1.48243,2.50277 -8.37855,8.73212 -11.61957,10.4961 -0.70934,0.38607 -1.23245,0.7592 -1.16248,0.82917 0.07,0.07 0.27893,0.008 0.46435,-0.13728 0.40397,-0.31694 6.03564,-2.56063 7.34858,-2.92771 1.30872,-0.3659 5.086,-2.06733 6.69248,-3.01454 0.74571,-0.43969 2.20756,-1.56173 3.24857,-2.49342 1.041,-0.93169 2.0281,-1.69399 2.19355,-1.69399 0.69861,0 0.003,2.21577 -1.67512,5.33876 -1.77765,3.30746 -5.94628,6.52576 -13.26137,10.23813 -1.46828,0.74514 -3.13515,1.53327 -3.70417,1.75139 l -1.03456,0.39659 1.71979,-0.13912 c 6.85918,-0.5549 11.96808,-1.4946 16.97591,-3.12246 1.02061,-0.33176 1.31449,-0.34144 1.70467,-0.0561 0.43804,0.3203 0.37213,0.49239 -0.92985,2.42765 -2.27704,3.38458 -5.02212,5.19877 -10.72195,7.08603 -2.041,0.6758 -3.37399,0.95755 -4.61823,0.97617 -2.28583,0.0342 -4.76692,0.36419 -4.26264,0.56695 0.75233,0.30248 3.04494,0.95755 3.96875,1.13398 0.50933,0.0973 1.4023,0.44327 1.98438,0.76887 1.15896,0.6483 2.66268,1.19345 7.27604,2.63778 3.28721,1.02915 4.7625,1.77243 4.7625,2.39943 0,0.49762 -0.98074,0.9059 -4.49792,1.87247 -2.61093,0.71753 -3.06075,0.76147 -7.47448,0.73029 -2.58299,-0.0183 -4.69635,0.0516 -4.69635,0.1552 0,0.8029 4.18196,3.43046 8.26823,5.19499 1.44458,0.6238 1.78594,0.8846 1.78594,1.36448 0,0.69636 -0.51848,1.01783 -2.27731,1.41199 -0.70731,0.15851 -1.4851,0.46837 -1.72842,0.68857 -0.35099,0.31764 -0.84388,0.36487 -2.38552,0.22857 -1.87132,-0.16545 -1.91512,-0.15636 -1.18528,0.2461 0.41682,0.22985 0.92283,0.41791 1.12448,0.41791 0.2127,0 0.36663,0.27219 0.36663,0.64829 0,0.92856 -1.91672,2.43489 -4.29769,3.3775 -1.43075,0.56643 -2.08496,0.98513 -2.41669,1.54671 -0.25018,0.42351 -0.83608,1.04604 -1.30201,1.38339 -1.10833,0.80249 -3.57377,1.77536 -4.49908,1.77536 -0.40221,0 -1.32603,0.30138 -2.05294,0.66973 -1.15699,0.5863 -2.66667,0.89249 -5.01909,1.01798 -0.36838,0.0197 -1.02195,0.36229 -1.45238,0.7614 -0.98631,0.91456 -1.99283,1.10218 -4.90183,0.91372 l -2.31678,-0.1501 -0.93809,1.51983 c -1.10664,1.7929 -1.78619,2.16624 -4.27321,2.34768 -1.21323,0.0885 -2.09848,0.30825 -2.5664,0.63704 -0.39287,0.27605 -1.39033,0.8114 -2.21658,1.18967 -1.3229,0.60565 -1.71721,0.66779 -3.30245,0.52045 -1.77843,-0.16529 -1.80705,-0.15767 -2.36834,0.6306 -1.01094,1.41973 -1.85582,1.66887 -5.16435,1.52286 l -2.94312,-0.12987 -0.59181,0.86369 c -0.36096,0.52678 -1.12348,1.09241 -1.95476,1.45002 -2.14829,0.92417 -4.61682,0.51176 -6.85894,-1.14589 l -0.71467,-0.52836 -1.66658,0.72538 c -3.48492,1.51681 -5.37577,1.11328 -6.57,-1.40211 -0.53254,-1.12169 -0.7657,-1.35955 -1.33266,-1.35955 -0.37795,0 -0.77718,-0.0893 -0.88717,-0.19844 -0.34775,-0.34507 -2.51663,-0.22552 -2.66004,0.14662 -0.17345,0.45008 0.97525,2.70436 1.94264,3.81236 1.23885,1.41891 2.08342,3.39124 3.05365,7.1312 0.77288,2.97919 2.19454,6.77595 4.02674,10.754 0.41228,0.89514 2.12883,6.06903 3.35229,10.10426 1.11595,3.6806 1.50901,5.7364 1.50901,7.8925 0,1.7534 -0.0952,2.17887 -0.67974,3.03916 l -0.67974,1.00032 0.41516,1.8253 c 0.47125,2.07197 0.52869,3.63672 0.16829,4.58465 -0.41442,1.09001 -1.88437,2.55862 -3.25732,3.25434 -0.94793,0.48036 -1.25945,0.77332 -1.14353,1.07541 0.97198,2.53294 0.85642,6.58758 -0.27293,9.57624 -0.62597,1.65653 -0.86962,2.00811 -1.60437,2.31511 -1.29855,0.54257 -2.49269,0.44343 -3.583,-0.29745 -0.88219,-0.59947 -2.85094,-2.91647 -3.59877,-4.23537 -0.42625,-0.75174 -0.38779,-0.29796 0.21303,2.51354 0.64255,3.00677 0.66219,4.15476 0.0953,5.5715 -0.46815,1.17003 -1.13258,1.57225 -2.59717,1.57225 h -0.8799 l -0.17568,2.97657 c -0.3196,5.41507 -1.31078,8.70234 -3.21458,10.66121 -0.63016,0.64839 -1.2737,1.17889 -1.43007,1.17889 -0.15638,0 -0.79992,-0.5305 -1.43008,-1.17889 z m -7.35669,-88.44872 c -0.0305,-0.10914 0.13187,-0.61516 0.36091,-1.12448 0.9475,-2.10703 0.95014,-2.13797 0.31405,-3.68418 -0.69576,-1.69123 -0.75907,-2.37374 -0.28085,-3.02773 0.4501,-0.61555 1.37033,-0.26967 2.85775,1.07413 1.22553,1.10719 1.06071,1.07423 6.32866,1.26554 1.96453,0.0713 3.74502,0.15163 3.95666,0.17841 0.21163,0.0268 0.62834,-0.29513 0.92604,-0.71537 1.44906,-2.04556 2.71516,-2.73294 3.53105,-1.91705 0.48767,0.48768 0.37539,1.46246 -0.44923,3.89978 -0.74526,2.20275 -0.74901,2.24439 -0.27771,3.08351 0.26277,0.46784 0.40683,0.92154 0.32013,1.00824 -0.0867,0.0867 -0.0396,0.15764 0.10459,0.15764 0.48686,0 2.94249,-4.87578 3.77281,-7.4911 1.38035,-4.34781 1.69438,-7.13927 1.52156,-13.52535 -0.23183,-8.56675 -0.63269,-15.56449 -0.96157,-16.78587 -0.26038,-0.96698 -0.3457,-1.05703 -0.68242,-0.72031 -0.25711,0.25711 -0.38483,0.95082 -0.38483,2.09025 0,2.29812 -0.51524,3.608 -2.17547,5.53062 -1.12013,1.29717 -1.81518,1.81391 -3.51307,2.61181 -1.16417,0.54708 -2.59292,1.07946 -3.175,1.18307 -0.58208,0.1036 -1.20211,0.3023 -1.37783,0.44153 -0.41439,0.32835 -3.24522,0.12459 -5.10945,-0.36777 -2.98742,-0.789 -5.18678,-2.03087 -6.74997,-3.81136 -1.71566,-1.95417 -2.24088,-3.26386 -2.24088,-5.5879 0,-1.13943 -0.12771,-1.83314 -0.38483,-2.09025 -0.33672,-0.33672 -0.42203,-0.24667 -0.68241,0.72031 -0.32889,1.22138 -0.72975,8.21912 -0.96158,16.78587 -0.17281,6.38608 0.14122,9.17754 1.52156,13.52535 0.79311,2.49811 3.27838,7.4911 3.72871,7.4911 0.11998,0 0.19315,-0.0893 0.16262,-0.19844 z m -52.23454,-8.17487 c 2.73071,-2.36026 3.85636,-3.98974 4.4121,-6.38689 0.18664,-0.80508 0.15934,-0.85663 -0.36804,-0.69504 -0.31329,0.096 -1.284,0.68196 -2.15713,1.30215 -1.75237,1.24473 -6.48229,5.39242 -6.48229,5.68435 0,0.49965 1.588707,1.42498 2.69012,1.56683 0.0971,0.0125 0.95448,-0.64962 1.90524,-1.4714 z m 125.82754,0.72445 c 0.35463,-0.24922 0.6852,-0.57439 0.7346,-0.7226 0.19334,-0.58003 -7.14277,-6.64845 -8.56359,-7.08378 -0.52738,-0.16159 -0.55468,-0.11004 -0.36804,0.69504 0.55572,2.39705 1.68141,4.02664 4.4117,6.38654 1.86327,1.61049 2.38334,1.71007 3.78533,0.7248 z m -131.508482,-1.2768 c 0.669829,-0.54349 2.239817,-1.88294 3.488859,-2.97657 1.249043,-1.09362 3.125763,-2.58371 4.170503,-3.31131 1.34402,-0.93605 1.88998,-1.47767 1.86692,-1.85209 -0.0179,-0.29104 -0.01,-0.64823 0.0177,-0.79375 0.1642,-0.86376 0.10479,-4.10044 -0.0753,-4.10071 -0.49051,-8e-4 -1.48651,0.71286 -3.48833,2.49929 -3.88143,3.46378 -7.037673,5.7723 -9.458857,6.91833 -0.545703,0.2583 -0.992187,0.57005 -0.992187,0.69277 0,0.12272 0.353226,0.92286 0.784947,1.77809 0.701344,1.38936 1.267071,1.89533 2.362803,2.11322 0.05777,0.0115 0.653084,-0.42378 1.322917,-0.96727 z m 135.607582,0.68392 c 0.58528,-0.26667 2.26758,-2.94096 2.26758,-3.60467 0,-0.12453 -0.44648,-0.43776 -0.99218,-0.69606 -2.42119,-1.14603 -5.57743,-3.45455 -9.45886,-6.91833 -2.00182,-1.78643 -2.99783,-2.50004 -3.48833,-2.49929 -0.18007,2.6e-4 -0.23947,3.23695 -0.0753,4.10071 0.0277,0.14552 0.0356,0.50271 0.0177,0.79375 -0.023,0.37412 0.52285,0.91679 1.86308,1.85209 1.04262,0.7276 2.91935,2.21838 4.1705,3.31284 3.07279,2.68794 4.61894,3.95181 4.84207,3.95802 0.10229,0.003 0.48646,-0.13173 0.85372,-0.29906 z M 92.344207,223.5722 c 2.545225,-1.35659 5.341022,-3.37224 8.437903,-6.08336 3.70959,-3.24751 3.85049,-3.43654 3.45501,-4.63485 -0.17014,-0.51556 -0.2617,-1.3456 -0.20345,-1.84455 0.0583,-0.49895 0.033,-0.90718 -0.0562,-0.90718 -0.0891,0 -1.27896,0.8468 -2.64405,1.88177 -2.650372,2.00944 -7.677161,4.79283 -10.713655,5.93225 -1.018645,0.38225 -2.040052,0.86405 -2.269792,1.07069 -0.229739,0.20664 -0.666486,0.37571 -0.970547,0.37571 -1.09676,0 -1.389869,0.28301 -1.389869,1.34201 0,1.19357 1.093226,2.6251 2.591879,3.39395 1.193469,0.61229 1.780305,0.53019 3.762741,-0.52644 z m 145.020303,0.5486 c 0.34551,-0.17752 1.07469,-0.74958 1.62039,-1.27123 0.83776,-0.80083 0.99219,-1.121 0.99219,-2.05707 0,-1.15237 -0.2697,-1.42982 -1.38987,-1.42982 -0.30406,0 -0.74081,-0.16907 -0.97055,-0.37571 -0.22974,-0.20664 -1.25115,-0.68844 -2.26979,-1.07069 -3.03649,-1.13942 -8.06328,-3.92281 -10.71365,-5.93225 -1.36509,-1.03497 -2.55491,-1.88177 -2.64406,-1.88177 -0.0891,0 -0.11442,0.40823 -0.0562,0.90718 0.0583,0.49895 -0.0333,1.32899 -0.20345,1.84455 -0.39514,1.19729 -0.25252,1.38916 3.42713,4.61039 3.2061,2.80666 5.63657,4.55846 8.41979,6.06868 1.95387,1.06019 2.6564,1.16919 3.78804,0.58774 z M 90.131174,217.32757 c 4.553566,-1.80338 9.05711,-4.44159 11.508796,-6.74194 0.68861,-0.64609 0.75378,-0.86636 0.75378,-2.54737 0,-1.04437 0.17317,-2.25456 0.40043,-2.79848 0.22023,-0.52709 0.29625,-0.95835 0.16891,-0.95835 -0.12732,0 -1.24779,0.47625 -2.48993,1.05833 -1.24213,0.58208 -2.377261,1.05833 -2.522507,1.05833 -0.518342,0 -10.465963,4.45766 -13.176018,5.90435 -0.595464,0.31787 -1.647192,1.07795 -2.337175,1.68906 -1.39492,1.23547 -1.416526,1.53755 -0.2044,2.85764 1.997654,2.17557 3.398518,2.26043 7.898114,0.47843 z m 152.164096,0.77834 c 0.90314,-0.58728 2.11872,-1.90682 2.32782,-2.52691 0.18781,-0.55696 -1.68271,-2.34326 -3.43105,-3.27656 -2.71006,-1.44669 -12.65768,-5.90435 -13.17602,-5.90435 -0.14525,0 -1.28038,-0.47625 -2.52251,-1.05833 -1.24213,-0.58208 -2.3626,-1.05833 -2.48993,-1.05833 -0.12733,0 -0.0513,0.43126 0.16891,0.95835 0.22727,0.54392 0.40043,1.75411 0.40043,2.79848 0,1.67407 0.0672,1.90394 0.74511,2.54737 2.4279,2.30453 8.00397,5.5958 11.29172,6.66493 0.58114,0.18898 1.53364,0.56031 2.11667,0.82517 1.3786,0.62629 3.62924,0.64116 4.56885,0.0302 z M 87.210831,209.40926 c 1.139377,-0.23563 2.967816,-0.81494 4.063197,-1.28736 1.09538,-0.47242 3.063163,-1.29737 4.372851,-1.83323 3.779514,-1.5464 4.541621,-1.934 4.547951,-2.31311 0.003,-0.19558 0.22237,-0.83184 0.4869,-1.41393 0.26453,-0.58208 0.4976,-1.51779 0.51794,-2.07936 l 0.037,-1.02103 -1.07509,0.14084 c -0.591297,0.0775 -1.908526,0.32902 -2.927171,0.55901 -1.018646,0.22998 -2.725981,0.60332 -3.79408,0.82965 -1.068097,0.22632 -2.318253,0.58174 -2.778125,0.78983 -0.459871,0.20808 -2.32441,0.74313 -4.14342,1.189 -4.625528,1.13379 -10.451393,3.36663 -10.968895,4.20397 -0.358296,0.57973 2.187222,1.51915 5.01577,1.85105 1.164166,0.13661 2.414323,0.36789 2.778125,0.51396 0.936087,0.37585 1.51866,0.35637 3.867077,-0.12929 z m 155.328719,0.14481 c 0.40966,-0.15599 1.72338,-0.39497 2.91938,-0.53108 1.196,-0.1361 2.50569,-0.38049 2.91041,-0.54308 1.53835,-0.618 1.9265,-0.85897 1.9265,-1.19603 0,-0.79851 -5.85972,-3.12459 -10.98021,-4.35871 -1.89177,-0.45594 -3.74165,-0.9821 -4.11084,-1.16923 -0.36919,-0.18713 -1.55982,-0.52845 -2.64583,-0.75847 -1.08602,-0.23003 -2.80802,-0.6064 -3.82666,-0.83638 -1.01865,-0.22999 -2.33588,-0.48154 -2.92718,-0.55901 l -1.07509,-0.14084 0.037,1.02103 c 0.0204,0.56157 0.25341,1.49728 0.51794,2.07936 0.26453,0.58209 0.48364,1.22284 0.48691,1.42389 0.006,0.36373 0.77591,0.7504 4.81253,2.41667 1.16417,0.48055 2.9501,1.23431 3.96875,1.67503 1.85946,0.80448 5.20507,1.69449 6.53121,1.73745 0.39071,0.0126 1.04556,-0.10462 1.45521,-0.2606 z M 88.900004,200.98238 c 1.323501,-0.11922 7.217156,-1.38767 9.98802,-2.14965 0.181902,-0.05 0.33073,-0.35755 0.33073,-0.68341 0,-0.32585 0.430387,-1.03322 0.956416,-1.57192 0.52603,-0.5387 0.87855,-1.10546 0.78337,-1.25945 -0.11716,-0.18958 -1.814489,-0.23268 -5.255895,-0.13349 -2.795566,0.0806 -5.975818,0.0465 -7.067225,-0.0756 -1.091406,-0.12219 -2.758281,-0.14654 -3.704166,-0.0541 -0.945886,0.0924 -2.672292,0.0724 -3.836459,-0.0445 -1.164166,-0.1169 -3.485885,-0.34556 -5.159375,-0.50811 -1.673489,-0.16256 -3.489192,-0.46853 -4.034895,-0.67994 -1.201786,-0.46558 -1.254619,-0.1768 -0.189583,1.03621 1.084871,1.2356 5.017006,3.1753 7.577265,3.73783 3.422102,0.75188 4.836446,1.23399 5.860225,1.99756 0.535396,0.39931 1.211572,0.68497 1.502613,0.63478 0.291042,-0.0502 1.303073,-0.16096 2.248959,-0.24617 z M 240.75492,200.6192 c 1.07799,-0.78089 2.46518,-1.25735 5.83675,-2.00478 2.69539,-0.59753 6.63479,-2.54993 7.66373,-3.79821 1.04831,-1.27178 1.01274,-1.45913 -0.18925,-0.99669 -0.90382,0.34773 -2.13773,0.50914 -9.06198,1.18542 -1.23693,0.1208 -3.02286,0.14361 -3.96875,0.0507 -0.94589,-0.0929 -2.61276,-0.069 -3.70417,0.0532 -1.0914,0.12219 -4.26983,0.15329 -7.06316,0.0691 -3.515,-0.10595 -5.13333,-0.0649 -5.2559,0.13347 -0.0974,0.15761 0.25328,0.72732 0.77931,1.26602 0.52603,0.5387 0.95642,1.24607 0.95642,1.57192 0,0.32586 0.14883,0.63339 0.33073,0.68341 2.89585,0.79635 8.75067,2.0574 10.3849,2.23675 1.16416,0.12778 2.14746,0.24789 2.1851,0.26692 0.0376,0.019 0.53546,-0.3037 1.10627,-0.7172 z M 99.483337,193.74421 c 0,-0.26567 0.293986,-0.75923 0.653303,-1.09679 0.35932,-0.33756 0.60122,-0.69801 0.53757,-0.80101 -0.0636,-0.10299 -1.042246,-0.33257 -2.174655,-0.51018 -2.851732,-0.44728 -7.909769,-1.59115 -8.940881,-2.02198 -0.470823,-0.19672 -0.925547,-0.28817 -1.010499,-0.20322 -0.08495,0.0849 -2.272965,-0.74295 -4.862252,-1.83978 -2.589287,-1.09684 -5.651826,-2.31669 -6.805641,-2.71079 -1.153816,-0.3941 -2.867592,-1.06191 -3.808392,-1.48402 -0.940799,-0.42211 -1.742281,-0.735 -1.781072,-0.6953 -0.03879,0.0397 0.08941,0.5362 0.2849,1.10337 0.425839,1.2355 2.447735,3.37466 4.095119,4.33264 0.654844,0.3808 1.547812,0.95383 1.984375,1.27342 0.861921,0.63096 3.93806,2.18982 5.423958,2.74864 0.509323,0.19155 1.369108,0.69103 1.910634,1.10994 1.245626,0.9636 3.057817,1.19682 9.664887,1.24378 4.511114,0.0321 4.828646,0.003 4.828646,-0.44872 z m 138.180333,0.21326 c 2.029,-0.23248 2.46701,-0.38012 3.526,-1.18846 0.66506,-0.50765 1.35521,-0.923 1.53366,-0.923 0.59428,0 4.50038,-2.01894 6.77876,-3.50372 2.69201,-1.75434 4.4065,-3.45828 4.88939,-4.8593 0.1952,-0.56633 0.32317,-1.06216 0.28438,-1.10185 -0.0388,-0.0397 -0.83181,0.26564 -1.76226,0.67852 -0.93045,0.41287 -2.46563,1.02568 -3.41151,1.3618 -2.36325,0.83976 -5.03734,1.8772 -5.53756,2.14835 -1.18083,0.64008 -6.41686,2.67039 -6.54816,2.53909 -0.0838,-0.0838 -0.53755,0.009 -1.00837,0.20535 -1.03111,0.43083 -6.08915,1.5747 -8.94088,2.02198 -1.13241,0.17761 -2.11101,0.40719 -2.17466,0.51018 -0.0636,0.103 0.17826,0.46345 0.53757,0.80101 0.35932,0.33756 0.65331,0.83112 0.65331,1.09679 0,0.44854 0.31664,0.48289 4.43177,0.48088 2.43747,-0.001 5.47433,-0.12163 6.74856,-0.26762 z m -135.26992,-3.56443 c 0,-0.21705 0.23813,-0.54334 0.52917,-0.7251 0.29104,-0.18176 0.52917,-0.44074 0.52917,-0.57551 0,-0.13477 -0.0718,-0.17319 -0.15965,-0.0854 -0.0878,0.0878 -1.09661,-0.18583 -2.24179,-0.60807 -2.057263,-0.75853 -6.255312,-1.75693 -9.95321,-2.36711 -1.046983,-0.17276 -2.043827,-0.48307 -2.215209,-0.68957 -0.171382,-0.2065 -0.485179,-0.37546 -0.697326,-0.37546 -0.424992,0 -4.5104,-2.12776 -5.767193,-3.00366 -0.891518,-0.62133 -4.573784,-3.55227 -5.112128,-4.06905 -0.694755,-0.66693 -0.575615,-0.31226 0.275097,0.81893 0.477555,0.635 1.317165,1.47788 1.8658,1.87307 0.548636,0.39519 1.239638,1.19312 1.53556,1.77317 0.306854,0.60149 0.958261,1.29884 1.516022,1.62296 0.537891,0.31258 2.269605,1.44295 3.848254,2.51194 3.147933,2.13165 3.572107,2.27188 11.020353,3.64324 4.03287,0.74253 5.02708,0.79308 5.02708,0.2556 z M 228.6,190.12249 c 7.49976,-1.36684 7.85198,-1.48278 11.01848,-3.62701 1.57968,-1.06969 3.31224,-2.20064 3.85013,-2.51322 0.53916,-0.3133 1.21018,-1.02127 1.49546,-1.5778 0.28462,-0.55522 0.97562,-1.35303 1.53556,-1.77291 0.55995,-0.41987 1.42202,-1.3006 1.91572,-1.95716 0.89874,-1.19523 0.74311,-1.24566 -0.4993,-0.16178 -3.2171,2.80661 -8.91356,6.45003 -10.08938,6.45311 -0.23684,6e-4 -0.57084,0.17008 -0.74223,0.37658 -0.17138,0.2065 -1.16822,0.51681 -2.21521,0.68957 -3.75163,0.61904 -7.86526,1.60352 -10.09616,2.41621 -2.11644,0.77099 -2.23351,0.85206 -1.73487,1.20132 0.2941,0.20599 0.53472,0.54637 0.53472,0.7564 0,0.52865 0.82796,0.48199 5.02708,-0.28331 z m -121.29075,-0.83148 c -0.0812,-0.21164 0.12952,-0.66199 0.46831,-1.00077 l 0.61597,-0.61598 -2.40458,-1.13326 c -4.35038,-2.05033 -3.92976,-1.89582 -3.50322,-1.28684 0.20556,0.29347 1.05724,0.86874 1.89263,1.27839 0.83539,0.40964 1.39029,0.82429 1.23312,0.92143 -0.15718,0.0971 -0.49899,0.0593 -0.75957,-0.0841 -1.09451,-0.60232 -2.48484,-1.11562 -5.10399,-1.88433 -4.259802,-1.25024 -7.116625,-2.9589 -10.752743,-6.4312 -1.663418,-1.58848 -3.085063,-2.82747 -3.15921,-2.75332 -0.253818,0.25381 5.575194,5.93405 7.694245,7.49785 1.164167,0.85913 2.188329,1.66024 2.275917,1.78024 0.08759,0.12001 1.6354,0.73651 3.439583,1.37002 1.804188,0.6335 4.285468,1.57063 5.513978,2.08251 2.2266,0.92775 2.82958,0.98909 2.54956,0.25937 z m 115.63238,-0.96304 c 0.41997,-0.21661 2.18204,-0.8776 3.91572,-1.46887 1.73367,-0.59127 3.22195,-1.17025 3.30729,-1.28661 0.0853,-0.11636 1.10766,-0.91449 2.27182,-1.77362 2.11905,-1.5638 7.94806,-7.24404 7.69425,-7.49785 -0.0742,-0.0742 -1.49579,1.16484 -3.15921,2.75332 -3.63612,3.4723 -6.49294,5.18096 -10.75275,6.4312 -2.61914,0.76871 -4.00948,1.28201 -5.10399,1.88433 -0.26058,0.1434 -0.60238,0.18125 -0.75956,0.0841 -0.15718,-0.0971 0.39772,-0.51179 1.23311,-0.92143 0.8354,-0.40965 1.68708,-0.98492 1.89263,-1.27839 0.36014,-0.51417 0.34696,-0.52137 -0.36245,-0.198 -0.40491,0.18457 -1.77449,0.85074 -3.04351,1.48037 l -2.30731,1.14479 0.51777,0.65823 c 0.28478,0.36203 0.45283,0.76331 0.37347,0.89172 -0.55768,0.90234 1.70867,0.42433 4.28272,-0.9033 z"
       id="path1434"
       inkscape:label="Skata"
       sodipodi:nodetypes="sscsssssssssscssssssssssssssssssssscsssssssssscssssssssssssssssscssssssssssssssssssssssssssssssssssssssssssscsssssssssccscssssssssssssssssssssssssssscsssscsscsssssssssssssssssssssssssssssscssssssscssscssssssssssscssssssssssscsssssssssssssssssssssssssssssssssssssssssssssssssssssccsssssssssssssssscssssscssssssssssssssssscsssssssssssssssssssssssscssssssscssccssssssssssssssssssccscssssssssssscssssssssssssssssssssssssssssssssssssssssssssssssssssscsssscssssssssssssssssssssssssssssssssssscssssssssssssssssssssssssssscssss" /></g></svg>
