<?xml version="1.0" encoding="UTF-8" standalone="no"?>
<!-- Created with Inkscape (http://www.inkscape.org/) -->

<svg
   width="329.37268mm"
   height="380.32681mm"
   viewBox="0 0 329.37268 380.3268"
   version="1.1"
   id="svg21"
   inkscape:version="1.2.2 (732a01da63, 2022-12-09, custom)"
   sodipodi:docname="FGVSL_logo_hex_forenklad.svg"
   xml:space="preserve"
   xmlns:inkscape="http://www.inkscape.org/namespaces/inkscape"
   xmlns:sodipodi="http://sodipodi.sourceforge.net/DTD/sodipodi-0.dtd"
   xmlns="http://www.w3.org/2000/svg"
   xmlns:svg="http://www.w3.org/2000/svg"><sodipodi:namedview
     id="namedview23"
     pagecolor="#ffffff"
     bordercolor="#ffffff"
     borderopacity="1"
     inkscape:showpageshadow="0"
     inkscape:pageopacity="0"
     inkscape:pagecheckerboard="1"
     inkscape:deskcolor="#505050"
     inkscape:document-units="mm"
     showgrid="true"
     inkscape:zoom="0.5"
     inkscape:cx="-315"
     inkscape:cy="785"
     inkscape:window-width="1920"
     inkscape:window-height="1016"
     inkscape:window-x="0"
     inkscape:window-y="0"
     inkscape:window-maximized="1"
     inkscape:current-layer="layer4"
     showguides="true"><inkscape:grid
       type="xygrid"
       id="grid147"
       spacingx="3.2596701"
       originx="1.7028322"
       originy="2.309401"
       spacingy="3.7570801"
       units="mm"
       color="#f50000"
       opacity="0.53333333"
       empspacing="10" /><sodipodi:guide
       position="197.28304,473.64508"
       orientation="0,-1"
       id="guide151"
       inkscape:locked="false" /><sodipodi:guide
       position="164.68634,473.64507"
       orientation="1,0"
       id="guide153"
       inkscape:locked="false" /><sodipodi:guide
       position="164.68635,650.22783"
       orientation="0,-1"
       id="guide948"
       inkscape:locked="false" /></sodipodi:namedview><defs
     id="defs18" /><g
     inkscape:label="Bakgrund"
     inkscape:groupmode="layer"
     id="layer1"
     transform="translate(67.053609,41.484137)"
     style="display:inline"><path
       d="M 97.632738,-16.62193 240.7966,66.034007 V 231.34534 L 97.632738,314.00127 -45.531641,231.34534 V 66.034007 Z"
       style="display:inline;fill:#006aa7;fill-opacity:1;stroke:none;stroke-width:15.1181;stroke-linecap:butt;stroke-linejoin:miter;stroke-dasharray:none;stroke-opacity:1"
       id="path2568"
       inkscape:label="Bakgrund" /><path
       style="display:inline;fill:#fecc00;stroke-width:0.264583;fill-opacity:1"
       d="M 40.482559,280.99501 V 16.363363 l 57.15939,-32.990609 57.140611,32.990243 V 280.99538 l -57.149822,32.99528 z"
       id="path348"
       inkscape:label="StolpeBana"
       sodipodi:nodetypes="ccccccc" /><path
       id="path209"
       style="display:inline;fill:#000000;fill-opacity:1;stroke:#000000;stroke-width:15.1181;stroke-linecap:butt;stroke-linejoin:miter;stroke-dasharray:none;stroke-opacity:1"
       inkscape:label="Kant"
       inkscape:transform-center-x="2.0533354e-06"
       inkscape:transform-center-y="-2.3666647e-06"
       d="M 616.00161,7.0900591e-5 1.1226933,355.00008 v 709.99802 l 614.8789167,355 614.87699,-355 V 355.00008 Z m 0,85.199220099409 541.09179,312.400399 V 1022.3985 L 616.00161,1334.7989 74.90785,1022.3985 V 397.59969 Z"
       transform="matrix(0.26458333,0,0,0.26458333,-65.350777,-39.174736)"
       sodipodi:nodetypes="cccccccccccccc" /></g><g
     inkscape:groupmode="layer"
     id="layer3"
     inkscape:label="DevOps"
     transform="translate(-28.433786,-16.842049)"
     style="display:inline"><path
       id="path425"
       style="display:inline;fill:#000000;stroke-width:0.265;stroke-dasharray:none"
       inkscape:label="SvartLinje"
       d="m 136.24097,186.0073 c -7.85751,-0.82105 -16.50461,-4.58053 -23.96794,-10.42048 -2.12278,-1.66106 -6.11273,-5.56945 -7.96014,-7.79746 -2.75909,-3.32748 -6.047449,-9.17974 -7.657869,-13.62859 -2.75481,-7.6103 -3.37924,-17.01103 -1.68698,-25.39745 2.54629,-12.61872 10.413559,-23.69388 21.885109,-30.808759 10.85197,-6.730608 24.59268,-9.223599 35.57442,-6.454308 7.35983,1.855946 15.71665,6.499378 21.41068,11.896767 l -13.21117,17.29665 c -0.0356,-8e-5 -0.99823,-0.69234 -2.13926,-1.53836 -2.19239,-1.62555 -5.83204,-3.61884 -8.25184,-4.51918 -6.6259,-2.46531 -15.2381,-1.68783 -21.92094,1.97897 -7.44878,4.08705 -11.5079,11.66743 -11.46384,21.40864 0.0597,13.20943 7.50815,22.47602 19.99891,24.88071 2.70736,0.52122 7.8762,0.53495 10.48018,0.0279 5.7969,-1.1289 11.38481,-4.55856 15.14936,-9.29814 0.57791,-0.72761 10.45552,-10.81815 21.95022,-22.42344 l 27.77897,-27.65585 13.3059,1.92506 0.0862,15.21368 -7.64674,7.80964 c -5.9883,6.11587 -35.78712,36.2162 -40.99058,41.65226 -3.86591,4.03872 -6.22198,6.26022 -8.20208,7.73363 -6.42082,4.7778 -14.2898,7.46901 -23.8125,8.14392 -4.33822,0.30747 -5.55354,0.30387 -8.70811,-0.0257 z m 11.72745,-2.19935 c 3.90818,-0.51602 7.11045,-1.32854 11.48223,-2.91343 4.64513,-1.68399 10.57856,-5.96277 14.734,-10.62514 3.24778,-3.64398 8.11216,-8.61268 27.31312,-27.89888 l 17.79922,-17.87823 v -6.265 -6.26499 h -6.52987 -6.52987 l -16.42273,16.61115 c -18.6997,18.91423 -24.80968,25.18405 -26.84376,27.546 -2.74736,3.1902 -7.52496,6.40897 -11.4071,7.68518 -3.62148,1.19052 -3.74508,1.20663 -9.26042,1.20663 -6.85662,0 -9.30394,-0.50835 -13.88176,-2.88349 -6.71521,-3.4841 -11.35087,-9.80951 -12.9546,-17.67671 -0.60829,-2.98403 -0.5547,-10.1756 0.0991,-13.30647 1.00074,-4.79182 2.83438,-8.3669 6.05592,-11.80729 3.45581,-3.69058 7.88624,-6.09223 13.66983,-7.41013 2.20289,-0.50197 11.4602,-0.49889 13.09688,0.004 3.35215,1.03071 5.63129,2.05484 8.92969,4.01252 l 1.38906,0.82444 c 0.1749,-9.55266 -3.00774,-13.36574 6.88226,-13.2215 4.64179,-0.0866 6.67606,0.8165 2.70889,-2.09002 -6.53693,-4.786089 -12.58384,-7.492338 -19.38073,-8.673688 -4.0432,-0.702738 -11.5185,-0.437303 -15.21355,0.540206 -0.7276,0.192485 -2.15635,0.557286 -3.175,0.810668 -2.1013,0.522688 -6.5996,2.264275 -9.07226,3.512475 -8.85878,4.471889 -16.47244,12.021359 -20.80995,20.634509 -2.003259,3.97796 -3.576729,9.06697 -4.263569,13.78952 -0.68361,4.70043 -0.27286,14.63121 0.67872,16.40925 0.14402,0.26911 0.26186,0.70878 0.26186,0.97704 0,1.94502 3.606799,9.96532 6.221519,13.83454 7.12134,10.53803 18.97869,18.39448 30.95243,20.50847 2.60716,0.4603 10.01155,0.46471 13.47039,0.008 z m 92.67406,2.20272 c -6.1749,-0.44264 -12.33174,-2.06627 -17.50903,-4.61732 -4.60705,-2.27007 -7.70339,-4.77084 -13.75405,-11.10851 -2.90805,-3.046 -7.19182,-7.47518 -9.51947,-9.84263 l -4.23209,-4.30444 7.73617,-7.7341 7.73617,-7.7341 6.01664,6.11131 c 3.30914,3.36122 6.90579,7.09705 7.99253,8.30184 3.68207,4.08203 8.48611,6.82121 13.76681,7.84958 2.5426,0.49515 7.73153,0.4888 10.45104,-0.0128 12.3945,-2.28606 19.96838,-11.70073 20.02805,-24.89577 0.0368,-8.12727 -2.81523,-14.86193 -8.10976,-19.15036 -6.67108,-5.40341 -17.30719,-7.20123 -25.21061,-4.26135 -2.92822,1.08923 -6.02836,2.82361 -8.84644,4.94917 -0.82569,0.62278 -1.54006,1.13239 -1.5875,1.13247 -0.0474,8e-5 -0.0862,-3.42297 -0.0862,-7.60677 v -7.60691 l -7.67225,0.10601 c 0,0 -8.13658,0.31936 -5.63365,-2.03107 5.99108,-5.626039 14.1428,-10.181713 21.57012,-12.054676 10.98174,-2.769291 24.72244,-0.2763 35.57442,6.454307 15.58439,9.665749 24.13473,26.336649 22.69936,44.257739 -0.93236,11.64072 -5.70497,21.59245 -14.44727,30.1251 -7.84569,7.65753 -18.17339,12.68966 -28.10782,13.6954 -3.04432,0.30821 -4.29043,0.30509 -8.85513,-0.0221 z m -75.05707,-60.35351 -4.95833,-4.96349 13.21117,-17.29665 11.9894,11.74071 25.27253,25.53184 -15.47234,15.4682 c -0.0751,0 -27.31535,-27.7507 -30.04243,-30.48061 z m -29.44686,58.41127 c -1.43504,-0.12711 -2.82848,-0.15492 -4.85826,-0.68063 -8.30001,-2.14969 -16.21466,-6.84572 -22.54783,-13.31256 -3.61925,-3.69564 -5.8566,-6.63791 -8.13808,-11.08883 -1.992399,-3.88695 -3.622419,-7.60295 -3.863669,-9.27928 -0.0616,-0.42825 -0.18695,-1.22758 -0.30689,-1.53982 -0.91759,-2.38876 -1.03512,-11.45367 -0.38665,-16.10768 0.49094,-3.5235 1.64105,-7.88916 3.07564,-11.36167 0.67102,-1.62424 2.436279,-4.75547 3.453849,-6.35241 4.67032,-7.32936 11.63028,-13.54701 19.29915,-17.223719 3.29349,-1.57901 6.87488,-2.747595 10.61463,-3.683699 3.83801,-0.960699 6.06111,-1.430821 10.56467,-1.439611 3.26866,-0.0064 5.27451,0.0873 7.71007,0.574096 3.40483,0.680521 6.33176,1.919401 9.72963,3.590602 2.35881,1.160142 4.23221,2.565442 6.23832,3.948561 6.59568,3.95715 4.19745,4.29824 -1.22633,3.81847 -9.54023,-1.11187 -6.45093,6.44783 -6.40999,13.67151 l -1.73325,-1.19763 c -2.8009,-1.93535 -5.00978,-2.80408 -7.67583,-3.70047 -1.52432,-0.51252 -2.62683,-0.75569 -3.77007,-0.85365 -1.68912,-0.14473 -6.99941,0.0582 -8.72555,0.20125 -4.34779,0.36026 -9.68805,2.31546 -13.26936,5.24645 -1.8581,1.5207 -3.94901,4.11564 -5.18954,6.15895 -1.73598,2.85941 -2.72225,6.49364 -3.09858,10.20117 -0.1786,1.75951 -0.30615,7.65435 -0.12809,9.16283 0.55477,4.69711 2.8722,9.9304 5.8623,13.42517 2.32788,2.72079 4.63556,4.37403 8.03476,6.04535 4.23359,2.08158 5.8013,1.95868 13.18389,1.95868 5.55692,0 5.07289,-0.0183 7.96192,-0.96172 2.82276,-0.92182 4.87198,-2.28892 7.48458,-4.25124 1.59366,-1.19699 3.10776,-2.2375 5.0947,-4.4098 2.94046,-3.21477 9.18233,-9.17367 30.13274,-29.79226 l 12.85244,-13.38616 6.75599,0.0771 6.82714,0.0264 -0.075,6.70585 -0.10825,6.33759 -4.48339,4.50918 c -32.60518,32.77201 -35.37162,35.87967 -39.81825,40.70887 -3.57146,3.87873 -6.4408,6.11975 -9.90143,8.35441 -2.65557,1.7148 -4.44046,2.68925 -7.73563,3.78821 -3.42809,1.14329 -6.64559,1.73146 -9.8946,2.14426 -1.61956,0.20578 -9.73227,0.12723 -11.53187,-0.0322 z"
       sodipodi:nodetypes="cssssssccssscscsscccsssscccssscccccsssssscsscscccssssssssssccsssscccssssssssssccssssssssscccccscssssssscssssscccssscssscsssssscccccccsssscc" /></g><g
     inkscape:groupmode="layer"
     id="layer4"
     inkscape:label="Skata"
     transform="translate(1.7028323,2.3094011)"><path
       style="display:inline;fill:#000000;stroke-width:0.264583"
       d="m 161.55496,325.07546 c -1.9038,-1.95887 -2.89498,-5.24614 -3.21458,-10.66121 l -0.17568,-2.97657 h -0.8799 c -1.46459,0 -2.12901,-0.40222 -2.59717,-1.57225 -0.56686,-1.41674 -0.54722,-2.56473 0.0953,-5.5715 0.60082,-2.8115 0.63928,-3.26528 0.21304,-2.51354 -0.74783,1.3189 -2.71658,3.6359 -3.59877,4.23537 -1.09032,0.74088 -2.28445,0.84002 -3.583,0.29745 -2.17452,-0.90857 -3.31636,-8.14125 -1.87731,-11.89135 0.11592,-0.30209 -0.19559,-0.59505 -1.14353,-1.07541 -1.37294,-0.69572 -2.8429,-2.16433 -3.25732,-3.25434 -0.3604,-0.94793 -0.30296,-2.51268 0.1683,-4.58465 l 0.41516,-1.8253 -0.67974,-1.00032 c -1.18029,-1.73696 -0.92061,-5.16027 0.82926,-10.93166 1.22347,-4.03523 2.94001,-9.20912 3.35229,-10.10426 1.8322,-3.97805 3.25387,-7.77481 4.02674,-10.754 0.97024,-3.73996 1.8148,-5.71229 3.05365,-7.1312 0.9674,-1.108 2.1161,-3.36228 1.94265,-3.81236 -0.14341,-0.37214 -2.31229,-0.49169 -2.66005,-0.14662 -0.10999,0.10914 -0.50921,0.19844 -0.88717,0.19844 -0.56696,0 -0.80011,0.23786 -1.33266,1.35955 -1.19125,2.50912 -3.00311,2.89829 -6.59862,1.41731 -1.68579,-0.69436 -1.69903,-0.69543 -2.38125,-0.19105 -1.292,0.9552 -2.39359,1.38977 -3.92996,1.55035 -1.98667,0.20765 -3.96906,-0.57412 -4.87532,-1.92263 -0.59816,-0.89006 -0.64196,-0.90648 -1.93493,-0.72533 -1.97162,0.27624 -4.59825,0.12941 -5.43616,-0.30389 -0.4069,-0.21041 -0.9955,-0.74163 -1.30799,-1.18048 -0.56129,-0.78827 -0.5899,-0.79589 -2.36834,-0.6306 -1.58524,0.14734 -1.97955,0.0852 -3.30245,-0.52045 -0.82624,-0.37827 -1.8237,-0.91362 -2.21658,-1.18967 -0.47256,-0.33206 -1.3434,-0.54542 -2.57313,-0.63044 -2.40078,-0.16599 -3.19539,-0.60879 -4.22301,-2.35329 l -0.84014,-1.42626 -2.62444,0.0898 c -2.8217,0.0966 -3.78996,-0.12877 -4.87338,-1.13419 -0.532867,-0.49451 -1.051707,-0.64021 -2.668877,-0.74945 -1.37339,-0.0928 -2.48312,-0.3532 -3.513566,-0.82454 -0.828384,-0.37891 -1.789684,-0.68893 -2.136225,-0.68893 -0.900845,0 -3.5687,-1.03535 -4.580044,-1.77744 -0.473095,-0.34714 -1.027252,-0.95426 -1.231459,-1.34915 -0.216937,-0.41951 -0.849269,-0.92234 -1.521076,-1.20956 -0.632385,-0.27036 -1.63209,-0.69783 -2.221566,-0.94993 -1.534262,-0.65616 -3.029266,-2.04351 -3.029266,-2.81112 0,-0.4239 0.153466,-0.63716 0.463021,-0.64343 0.254661,-0.005 0.760677,-0.19042 1.124479,-0.4117 0.622476,-0.37861 0.55684,-0.39329 -1.113743,-0.24894 -1.471521,0.12715 -1.946098,0.0618 -2.774206,-0.38205 -0.549454,-0.29448 -1.220901,-0.53543 -1.492105,-0.53543 -0.271205,0 -0.898046,-0.19216 -1.392981,-0.42702 -0.652716,-0.30974 -0.899882,-0.60042 -0.899882,-1.05833 0,-0.35975 0.156738,-0.63132 0.364368,-0.63132 0.200403,0 2.016106,-0.84267 4.034896,-1.8726 3.494907,-1.78301 5.654903,-3.36812 5.654903,-4.14983 0,-0.19734 -0.0893,-0.30506 -0.198438,-0.23938 -0.518375,0.31194 -6.728591,0.44536 -8.532367,0.18331 -3.478255,-0.50532 -7.937945,-1.93584 -7.937945,-2.54623 0,-0.59081 1.481967,-1.35235 4.365625,-2.24335 1.455208,-0.44963 3.419739,-1.05926 4.365625,-1.35474 0.945885,-0.29547 2.196041,-0.80885 2.778125,-1.14083 0.582083,-0.33198 1.594114,-0.74433 2.248958,-0.91633 0.654844,-0.172 2.024063,-0.56989 3.042708,-0.8842 l 1.852084,-0.57146 -1.5875,-0.17326 c -0.873125,-0.0953 -2.333842,-0.18617 -3.246038,-0.20197 -3.37249,-0.0584 -10.259196,-2.82041 -12.960738,-5.19811 -1.462283,-1.28699 -3.888331,-4.74265 -3.626737,-5.16591 0.234534,-0.37949 1.183781,-0.29817 2.91495,0.24972 3.888646,1.23069 7.225082,1.90893 11.891479,2.41734 2.764896,0.30124 5.250353,0.61477 5.523238,0.69674 0.322137,0.0968 0.432658,0.0463 0.315114,-0.1439 -0.09957,-0.16111 -0.33499,-0.29292 -0.523151,-0.29292 -0.566175,0 -6.167512,-2.83556 -9.416242,-4.76678 -4.269954,-2.53828 -6.66887,-4.81814 -8.237724,-7.82889 -2.576771,-4.94501 -2.356466,-5.8852 0.721059,-3.07722 2.401776,2.19141 6.279715,4.26548 10.788661,5.77018 1.581317,0.52771 3.890597,1.4264 5.131734,1.9971 1.241138,0.57069 2.295316,0.99892 2.342618,0.95162 0.0473,-0.0473 -0.714165,-0.54492 -1.692151,-1.10582 -2.798743,-1.60515 -5.516062,-3.8081 -8.539143,-6.92275 -2.902029,-2.98994 -3.64938,-4.16644 -4.339039,-6.83066 -0.302819,-1.16982 -0.328809,-1.62096 -0.101478,-1.76146 0.488724,-0.30204 0.834919,-0.0446 1.62999,1.21214 0.79548,1.25738 3.63147,4.02032 6.290736,6.1287 0.891329,0.70668 2.250784,1.82066 3.021009,2.4755 2.076644,1.76556 5.673141,3.56576 8.689257,4.34935 1.434758,0.37276 2.786009,0.67773 3.002777,0.67773 0.216768,0 -0.302281,-0.52764 -1.153446,-1.17254 -2.864104,-2.17003 -9.141974,-9.11972 -10.630371,-11.76796 -0.527796,-0.93909 -0.554527,-1.10668 -0.198316,-1.24337 0.272088,-0.10441 0.883753,0.32271 1.803702,1.25952 4.11759,4.19306 9.503976,8.88726 11.4232,9.95525 1.988427,1.1065 6.344404,2.70243 5.747864,2.10588 -0.376117,-0.37612 -0.391067,-1.16651 -0.0263,-1.39194 0.15104,-0.0933 2.0777,0.688 4.28147,1.73631 3.50184,1.66581 7.25601,3.16469 7.92643,3.16469 0.12046,0 -0.25758,-0.43057 -0.84009,-0.95683 -0.5825,-0.52626 -1.05909,-1.0493 -1.05909,-1.16232 0,-0.51464 0.92932,-0.46716 2.06485,0.10549 2.22594,1.12256 6.32155,2.62929 7.85702,2.89051 2.60567,0.44328 5.65306,1.01363 7.82726,1.46494 1.37032,0.28445 4.45602,0.7741 6.85712,1.08811 2.40109,0.31401 4.96093,0.68753 5.68854,0.83005 0.7276,0.14252 2.57307,0.36953 4.10104,0.50445 1.52797,0.13493 3.25438,0.38047 3.83646,0.54564 0.58208,0.16517 1.48717,0.3585 2.01131,0.4296 l 0.95297,0.12929 1.092,-2.60374 c 1.28324,-3.05971 1.73377,-4.89445 2.2719,-9.2521 0.46685,-3.78041 0.95282,-5.18158 2.79102,-8.04717 2.40503,-3.74924 2.94813,-5.24486 4.39146,-12.09353 0.0785,-0.37243 0.3198,-0.59531 0.64455,-0.59531 0.32474,0 0.56605,0.22288 0.64454,0.59531 1.44333,6.84867 1.98643,8.34429 4.39147,12.09353 1.7709,2.76069 2.35276,4.34521 2.67143,7.2749 0.43582,4.00657 1.20518,7.23026 2.385,9.99332 l 1.12401,2.63236 0.94021,-0.13118 c 0.51712,-0.0722 1.71412,-0.31637 2.66,-0.54271 0.94589,-0.22634 2.4937,-0.41699 3.43959,-0.42368 0.94588,-0.007 2.30426,-0.18946 3.01861,-0.40617 0.71435,-0.21671 1.80511,-0.39401 2.4239,-0.39401 1.23424,0 8.34704,-1.07363 11.49082,-1.73445 1.72659,-0.36293 4.70002,-0.91799 7.26073,-1.35538 0.42814,-0.0731 1.35088,-0.3586 2.05052,-0.63438 0.69965,-0.27577 1.27208,-0.45031 1.27208,-0.38785 0,0.14542 2.046,-0.7215 4.15454,-1.76035 1.51582,-0.74683 2.46005,-0.84359 2.46005,-0.2521 0,0.13315 -0.4766,0.67267 -1.0591,1.19893 -0.5825,0.52626 -0.96054,0.95683 -0.84009,0.95683 0.69717,0 4.48831,-1.52745 7.82424,-3.15239 2.11678,-1.03108 3.95674,-1.8747 4.0888,-1.8747 0.13206,0 0.38832,0.1786 0.56948,0.39688 0.26278,0.31663 0.26278,0.47712 0,0.79375 -0.43336,0.52217 -0.0183,0.52217 1.23143,0 0.52243,-0.21828 1.12342,-0.39688 1.33555,-0.39688 0.21212,0 1.40458,-0.56554 2.64991,-1.25677 2.23921,-1.24288 4.09515,-2.83992 10.68868,-9.19761 3.79649,-3.6607 4.18848,-2.49743 0.62523,1.85543 -1.62474,1.98478 -3.38049,4.06276 -4.39478,5.20136 -0.95685,1.07412 -4.23164,3.9469 -5.12456,4.49547 -2.09574,1.28754 4.2729,-0.43053 7.22926,-1.95023 3.18162,-1.6355 11.39336,-8.31865 13.02697,-10.60204 1.25641,-1.75616 1.57524,-2.0828 1.9153,-1.96225 0.64639,0.22917 -0.0551,3.28986 -1.19512,5.21456 -1.48243,2.50277 -8.37855,8.73212 -11.61957,10.4961 -0.70934,0.38607 -1.23245,0.7592 -1.16248,0.82917 0.07,0.07 0.27893,0.008 0.46435,-0.13728 0.40397,-0.31694 6.03564,-2.56063 7.34858,-2.92771 1.30872,-0.3659 5.086,-2.06733 6.69248,-3.01454 0.74571,-0.43969 2.20756,-1.56173 3.24857,-2.49342 1.041,-0.93169 2.0281,-1.69399 2.19355,-1.69399 0.69861,0 0.003,2.21577 -1.67512,5.33876 -1.77765,3.30746 -5.94628,6.52576 -13.26137,10.23813 -1.54585,0.79787 -3.11653,1.52612 -4.73873,2.14798 l 1.71979,-0.13912 c 6.85918,-0.5549 11.96808,-1.4946 16.97591,-3.12246 1.02061,-0.33176 1.31449,-0.34144 1.70467,-0.0561 0.43804,0.3203 0.37213,0.49239 -0.92985,2.42765 -2.27704,3.38458 -5.02212,5.19877 -10.72195,7.08603 -2.041,0.6758 -3.37399,0.95755 -4.61823,0.97617 -2.28583,0.0342 -4.76692,0.36419 -4.26264,0.56695 0.75233,0.30248 3.04494,0.95755 3.96875,1.13398 0.50933,0.0973 1.4023,0.44327 1.98438,0.76887 1.15896,0.6483 2.66268,1.19345 7.27604,2.63778 3.28721,1.02915 4.7625,1.77243 4.7625,2.39943 0,0.49762 -0.98074,0.9059 -4.49792,1.87247 -2.61093,0.71753 -3.06075,0.76147 -7.47448,0.73029 -2.58299,-0.0183 -4.69635,0.0516 -4.69635,0.1552 0,0.8029 4.18196,3.43046 8.26823,5.19499 1.44458,0.6238 1.78594,0.8846 1.78594,1.36448 0,0.69636 -0.51848,1.01783 -2.27731,1.41199 -0.70731,0.15851 -1.4851,0.46837 -1.72842,0.68857 -0.35099,0.31764 -0.84388,0.36487 -2.38552,0.22857 -1.87132,-0.16545 -1.91512,-0.15636 -1.18528,0.2461 0.41682,0.22985 0.92283,0.41791 1.12448,0.41791 0.2127,0 0.36663,0.27219 0.36663,0.64829 0,0.92856 -1.91672,2.43489 -4.29769,3.3775 -1.43075,0.56643 -2.08496,0.98513 -2.41669,1.54671 -0.25018,0.42351 -0.83608,1.04604 -1.30201,1.38339 -1.10833,0.80249 -3.57377,1.77536 -4.49908,1.77536 -0.40221,0 -1.32603,0.30138 -2.05294,0.66973 -1.15699,0.5863 -2.66667,0.89249 -5.01909,1.01798 -0.36838,0.0197 -1.02195,0.36229 -1.45238,0.7614 -0.98631,0.91456 -1.99283,1.10218 -4.90183,0.91372 l -2.31678,-0.1501 -0.93809,1.51983 c -1.10664,1.7929 -1.78619,2.16624 -4.27321,2.34768 -1.21323,0.0885 -2.09848,0.30825 -2.5664,0.63704 -0.39287,0.27605 -1.39033,0.8114 -2.21658,1.18967 -1.3229,0.60565 -1.71721,0.66779 -3.30245,0.52045 -1.77843,-0.16529 -1.80705,-0.15767 -2.36834,0.6306 -1.01094,1.41973 -1.85582,1.66887 -5.16435,1.52286 l -2.94312,-0.12987 -0.59181,0.86369 c -0.36096,0.52678 -1.12348,1.09241 -1.95476,1.45002 -2.14829,0.92417 -4.61682,0.51176 -6.85894,-1.14589 l -0.71467,-0.52836 -1.66658,0.72538 c -3.48492,1.51681 -5.37577,1.11328 -6.57,-1.40211 -0.53254,-1.12169 -0.7657,-1.35955 -1.33266,-1.35955 -0.37795,0 -0.77718,-0.0893 -0.88717,-0.19844 -0.34775,-0.34507 -2.51663,-0.22552 -2.66004,0.14662 -0.17345,0.45008 0.97525,2.70436 1.94264,3.81236 1.23885,1.41891 2.08342,3.39124 3.05365,7.1312 0.77288,2.97919 2.19454,6.77595 4.02674,10.754 0.41228,0.89514 2.12883,6.06903 3.35229,10.10426 1.11595,3.6806 1.50901,5.7364 1.50901,7.8925 0,1.7534 -0.0952,2.17887 -0.67974,3.03916 l -0.67974,1.00032 0.41516,1.8253 c 0.47125,2.07197 0.52869,3.63672 0.16829,4.58465 -0.41442,1.09001 -1.88437,2.55862 -3.25732,3.25434 -0.94793,0.48036 -1.25945,0.77332 -1.14353,1.07541 0.97198,2.53294 0.85642,6.58758 -0.27293,9.57624 -0.62597,1.65653 -0.86962,2.00811 -1.60437,2.31511 -1.29855,0.54257 -2.49269,0.44343 -3.583,-0.29745 -0.88219,-0.59947 -2.85094,-2.91647 -3.59877,-4.23537 -0.42625,-0.75174 -0.38779,-0.29796 0.21303,2.51354 0.64255,3.00677 0.66219,4.15476 0.0953,5.5715 -0.46815,1.17003 -1.13258,1.57225 -2.59717,1.57225 h -0.8799 l -0.17568,2.97657 c -0.3196,5.41507 -1.31078,8.70234 -3.21458,10.66121 -0.63016,0.64839 -1.2737,1.17889 -1.43007,1.17889 -0.15638,0 -0.79992,-0.5305 -1.43008,-1.17889 z"
       id="path1434"
       inkscape:label="Skata"
       sodipodi:nodetypes="sscsssssssssscssssssssssssssssssssscsssssssssscssssssssssssssssscssssssssssssssssssssssssssssssssssssssssssscsssssssssccscssssssssssssssssssssssssssscsssscccsssssssssssssssssssssssssssssscssssssscssscssssssssssscssssssssssscsssss" /></g></svg>
