<?xml version="1.0" encoding="UTF-8" standalone="no"?>
<!-- Created with Inkscape (http://www.inkscape.org/) -->

<svg
   height="55.596066mm"
   width="170.2838mm"
   sodipodi:docname="kpist_profil.svg"
   version="1.1"
   id="SVGRoot"
   viewBox="0 0 170.28379 55.596065"
   inkscape:version="1.2.2 (732a01da63, 2022-12-09, custom)"
   xml:space="preserve"
   inkscape:export-filename="../cc4f4422/kpist_profil.png"
   inkscape:export-xdpi="286.39249"
   inkscape:export-ydpi="286.39249"
   xmlns:inkscape="http://www.inkscape.org/namespaces/inkscape"
   xmlns:sodipodi="http://sodipodi.sourceforge.net/DTD/sodipodi-0.dtd"
   xmlns="http://www.w3.org/2000/svg"
   xmlns:svg="http://www.w3.org/2000/svg"
   xmlns:rdf="http://www.w3.org/1999/02/22-rdf-syntax-ns#"
   xmlns:cc="http://creativecommons.org/ns#"
   xmlns:dc="http://purl.org/dc/elements/1.1/"><sodipodi:namedview
     id="base"
     pagecolor="#ffffff"
     bordercolor="#000000"
     borderopacity="0.3"
     inkscape:pageopacity="0.0"
     inkscape:pageshadow="2"
     inkscape:zoom="16"
     inkscape:cx="273.0625"
     inkscape:cy="27.15625"
     inkscape:document-units="mm"
     inkscape:current-layer="layer2"
     showgrid="true"
     showguides="true"
     inkscape:window-width="1920"
     inkscape:window-height="1016"
     inkscape:window-x="0"
     inkscape:window-y="0"
     inkscape:window-maximized="1"
     showborder="true"
     inkscape:showpageshadow="false"
     inkscape:pagecheckerboard="false"
     inkscape:deskcolor="#d1d1d1"><inkscape:grid
       type="xygrid"
       id="grid358"
       empspacing="1"
       spacingx="13.229167"
       spacingy="13.229167"
       dotted="false"
       originx="94.295392"
       originy="42.92705"
       snapvisiblegridlinesonly="true"
       visible="true"
       empcolor="#000000"
       empopacity="0.06666667"
       enabled="false" /></sodipodi:namedview><defs
     id="defs4" /><metadata
     id="metadata7"><rdf:RDF><cc:Work
         rdf:about=""><dc:format>image/svg+xml</dc:format><dc:type
           rdf:resource="http://purl.org/dc/dcmitype/StillImage" /></cc:Work></rdf:RDF></metadata><g
     inkscape:groupmode="layer"
     id="layer2"
     inkscape:label="Layer 2"
     style="display:inline"
     transform="translate(-115.70461,-105.57295)"><path
       id="path1184"
       style="display:inline;fill:#000000;fill-opacity:1;stroke:#000000;stroke-width:0.1;stroke-linejoin:round;stroke-dasharray:none;stroke-opacity:1"
       inkscape:label="Ytterst"
       d="m 207.07551,105.62295 -2.52232,2.52233 c -0.71711,0 -0.71055,0.0109 -0.71055,0.93482 h -20.1998 v -0.25373 h -4.23489 c 0,0 -0.71417,0.37745 -0.71417,0.71417 v 1.31103 c 0,0.14085 -0.10955,0.26741 -0.10955,0.40825 v 5.117 c 0,0.11733 0.17622,0.18757 0.17622,0.30489 v 0.49351 c 0,0.13295 0.16592,0.28629 0.33176,0.57464 h 4.51962 v -0.25681 h 0.60513 v 0.95547 h -9.3369 v -0.42943 h -0.43718 v -1.16375 c 0,0 -0.0694,-0.35967 -0.20774,-0.35967 h -1.7048 c -0.13743,0 -0.20619,0.35709 -0.20619,0.35709 l 0.008,1.38079 h -0.3421 l -1.16014,0.8661 v 1.22421 h -0.50333 l -0.0775,-0.28835 h -0.70125 c 0,0 -0.008,-0.22325 -0.22324,-0.22325 h -0.88212 c -0.18067,0 -0.18345,0.18397 -0.18345,0.18397 h -1.23972 c 0,0 0.005,-0.17156 -0.17156,-0.17156 h -0.86507 c -0.11133,0 -0.11265,0.19482 -0.11265,0.19482 h -0.67541 v -0.35709 c 0,-0.38123 -0.38189,-0.38137 -0.38189,-0.38137 h -35.38079 c -0.36879,0 -0.35502,0.35502 -0.35502,0.35502 l -5.7552,0.12919 c -0.50616,0.21275 -1.353,0.60673 -2.09445,0.66146 0,0 -1.68011,-0.0326 -2.51922,0 -1.65519,0.0643 -3.07303,1.6506 -2.94556,2.66753 1.09495,8.73609 1.36587,10.6759 1.20871,20.60908 -0.0164,1.03417 1.62426,1.80454 2.8913,1.80454 0.20997,0 1.20223,0.27311 1.84226,0.37311 0.7371,0.11514 1.72651,0.50643 1.72651,0.50643 h 41.05641 c 0.61341,-0.27339 1.16012,-0.28112 1.53118,-0.28112 h 0.95188 c 0,0 0.0453,0.23668 0.13642,0.23668 h 0.82424 c 0.11902,0 0.22014,-0.28112 0.22014,-0.28112 h 1.39372 c 0,0 0.0838,0.22634 0.18035,0.22634 h 0.85731 c 0.11348,0 0.17001,-0.29456 0.17001,-0.29456 h 0.5178 l 0.31523,-0.18242 1.31775,0.007 0.36225,0.46199 c 0.0249,0.0318 1.44235,0.18669 1.87637,0 0.13227,-0.0569 0.19906,-0.20833 0.30541,-0.30541 0.24125,-0.22021 0.3292,-0.18636 0.5364,-0.154 0.1055,0.0165 0.24288,-0.20567 0.24288,-0.20567 0.0721,-0.32737 0.0289,-0.53837 0.0253,-0.97152 3.45042,-0.15921 10.03149,-0.17459 10.25622,-0.38602 0.22474,-0.21143 3.08457,-16.79277 3.08457,-16.79277 l 0.69091,-0.0331 c 0.57369,-0.0275 0.27365,1.14727 0.61237,1.61128 0.71199,0.97527 1.87932,1.79918 2.7342,1.86241 1.59648,0.11808 3.22553,0.15302 4.64106,-0.22944 1.16529,-0.31484 2.27476,-1.04423 3.0241,-1.88154 0.6878,-0.76855 1.09427,-1.31132 1.26452,-2.32854 0,0 0.30194,-1.85569 0.53124,-2.71146 0.18059,-0.67398 0.36171,-1.08055 1.14877,-1.08055 h 5.4069 v -0.58963 l 9.94306,0.003 v -0.8015 l 4.18631,-0.0233 c 0,0 0.0586,0.42802 0.14935,0.57619 0.0908,0.14817 0.58261,0.19431 1.1069,0.19431 -0.0485,0.65402 -0.023,1.30769 -0.006,1.96215 0,0 0.2519,0.6008 0.5178,0.74466 1.11037,0.60074 3.78581,0.108 3.78581,0.108 l -0.008,-1.02681 h 1.18701 c 0,0 0.22009,0.0619 0.22221,0.27492 0,0 0.0371,0.44438 0.009,1.22835 h 1.32912 v 34.3085 c 0,0 0.053,0.54874 0.06,0.96583 0.002,0.10731 1.588,0.51935 1.93683,0.51935 0.24423,0 2.77803,0.016 3.72173,-0.10077 0.94377,-0.11683 1.9265,-0.36277 1.9265,-0.36277 0,0 0.2661,-0.10777 0.27234,-0.2899 0.006,-0.18213 -0.21704,-0.32091 -0.21704,-0.32091 l -0.0837,-34.76636 h 0.93534 l -0.009,-3.25199 4.05401,-0.16382 5.62912,0.045 v -4.10362 c 0,-0.33433 0.0576,-0.37052 0.37052,-0.37052 h 5.3175 l 1.48415,-1.48415 h 13.34751 c 0.31427,1.00729 0.61421,1.57303 1.76423,1.57303 1.15853,0 1.68769,-0.62019 1.80196,-1.57303 h 2.04845 c 0,0 0.35586,0.2868 0.50023,0.2868 h 8.20157 c 0,0 0.80563,-0.95305 0.80563,-2.58485 0,-1.6318 -0.61237,-2.66496 -0.61237,-2.66496 v -1.53375 l -1.80815,-3.13159 h -4.19458 l -2.33629,4.04626 h -18.99936 v -0.27905 h -0.61391 l -0.89039,-1.0635 h -5.90093 v 0.18086 h -10.13685 v 0.42427 h -11.80238 v -0.42427 H 213.1599 c -0.01,-0.85951 0.006,-0.86868 -0.46406,-0.86868 l -3.15898,-2.71301 z m 66.53754,5.92884 c 0.98724,-1.6e-4 1.78762,0.71738 1.78749,1.60248 1.3e-4,0.88511 -0.80024,1.60265 -1.78749,1.60249 -0.98704,-1e-4 -1.7871,-0.71756 -1.78697,-1.60249 -1.3e-4,-0.88492 0.79993,-1.60238 1.78697,-1.60248 z m -11.12593,0.0501 c 0.98699,9e-5 1.78703,0.6951 1.78697,1.55236 6e-5,0.85726 -0.79998,1.55227 -1.78697,1.55236 -0.98719,1.5e-4 -1.78755,-0.69492 -1.78749,-1.55236 -6e-5,-0.85744 0.8003,-1.55251 1.78749,-1.55236 z m 5.61464,0 c 0.98699,9e-5 1.78703,0.6951 1.78697,1.55236 6e-5,0.85726 -0.79998,1.55227 -1.78697,1.55236 -0.98699,-9e-5 -1.78703,-0.6951 -1.78697,-1.55236 -6e-5,-0.85726 0.79998,-1.55227 1.78697,-1.55236 z m 11.20087,0 c 0.98699,9e-5 1.78703,0.6951 1.78697,1.55236 6e-5,0.85726 -0.79998,1.55227 -1.78697,1.55236 -0.98699,-9e-5 -1.78703,-0.6951 -1.78697,-1.55236 -6e-5,-0.85726 0.79998,-1.55227 1.78697,-1.55236 z m -7.56595,4.76974 h 1.78801 c 0,0 -0.3368,0.56069 -0.94413,0.56069 -0.60733,0 -0.84388,-0.56069 -0.84388,-0.56069 z m -152.7514,4.99091 c 0.73291,0 1.99446,0.17975 2.24224,0.20205 0.92218,0.0831 2.09445,0.6997 2.09445,0.6997 l 5.56503,-0.10077 c 0,0 2.5e-4,0.43667 0.57568,0.43667 0.14852,0 34.71207,-0.38354 35.00355,-0.38654 0.61655,0 0.66973,-0.52142 0.66973,-0.52142 h 0.26613 0.30282 c 0,0 0.28821,0.47698 0.38551,0.47698 h 0.48317 c 0.1091,0 0.39274,-0.5085 0.39274,-0.5085 h 1.43919 c 0,0 -0.005,0.30334 0.0956,0.30334 h 0.85525 c 0.0872,0 0.0873,-0.34106 0.0873,-0.34106 h 0.98599 l 0.15038,-0.26045 h 0.0775 0.53485 l 0.092,0.34365 c 0,0 -0.54674,-0.0106 -0.54674,0.0889 v 0.50229 c 0,0.25536 0.74104,0.19586 0.74104,0.19586 v 0.54673 h -0.46044 c 0,0 1e-5,0.28427 0,0.46303 0,0.10961 4.80839,-0.15859 4.80539,-0.30283 0.003,-0.31751 0.003,-0.52898 0,-0.82889 -0.002,-0.20235 -0.61598,-0.42736 -0.61598,-0.54363 0,-0.3007 0.21833,-0.46509 0.78858,-0.46509 h 0.80977 c 0,0 0.16979,0.46922 0.29973,0.46922 h 1.48259 c 0.10201,0 0.49403,-0.46922 0.49403,-0.46922 h 0.74311 l -0.39171,1.46244 c -0.82941,0 -1.20321,0.34049 -1.42937,1.87172 l -3.1936,18.29759 c -0.0899,0.51397 -0.35191,0.79054 -0.74879,0.894 -0.33277,0.0868 -0.99633,0.26717 -0.99633,0.26717 l -0.37982,0.21911 -0.37672,0.37672 h -0.80408 c 0,0 -0.091,-0.2285 -0.15245,-0.2899 -0.064,-0.0642 -0.48369,-0.0698 -0.48369,-0.0698 0,0 -0.15254,-0.23564 -0.27285,-0.23564 h -0.80047 c -0.21863,0 -0.35657,0.33073 -0.35657,0.33073 h -1.21181 c 0,0 -0.10471,-0.33073 -0.4191,-0.33073 h -0.44338 c -0.21001,0 -0.36484,0.37517 -0.36484,0.37517 0,0 -0.44161,-0.004 -0.65887,-0.004 -1.24608,0 -1.99006,-0.42582 -1.99006,-0.42582 h -40.91947 c 0,0 -0.9205,0.54172 -1.80402,0.67438 -0.24541,0.0368 -1.31661,0.21345 -1.88516,-0.0548 -0.82405,-0.38877 -1.26895,-0.79552 -1.24695,-1.42678 0.34563,-9.9229 0.29735,-11.71612 -1.09657,-19.91145 -0.0941,-0.55307 0.65386,-2.02003 1.58646,-2.02003 z m 71.61785,0 h 3.38739 l 0.16692,0.42426 0.57516,0.007 c 0,0 0.19981,0.39016 0.14831,0.58807 -0.1636,0.6285 -0.47656,1.13548 -0.82631,1.79731 -0.32145,0.60825 -0.47559,1.33 -0.50229,2.01745 -0.0173,0.44649 0.14165,1.04969 0.24236,1.26142 0.3644,0.76614 2.32844,2.52593 2.4381,2.11667 0.0339,-0.12662 -2.23778,-1.90011 -1.95958,-3.64629 0.0895,-0.75807 0.51149,-1.49391 0.86403,-2.17093 0.45137,-0.86669 1.68724,-2.3952 1.68724,-2.3952 l 6.83524,0.0114 0.0248,0.91002 c -0.32913,0.0278 -1.0814,1.16827 -1.1467,1.99316 -0.0646,0.81602 -0.5009,2.51295 -0.82734,3.07836 -0.4339,0.75154 -1.08758,1.39178 -1.8123,1.86914 -0.78763,0.51884 -1.73661,0.88118 -2.64428,1.00717 -1.43453,0.19911 -3.06107,0.35211 -4.3062,-0.21187 -0.75017,-0.33981 -1.20757,-0.81785 -1.42471,-1.233 -0.22692,-0.43368 -0.19786,-1.84725 -0.19586,-2.77141 0.003,-1.15864 0.25528,-3.08209 0.25528,-3.46438 0,-0.19946 -0.96531,-0.5116 -0.96531,-0.5116 -0.25553,-0.13618 -0.17998,-0.63746 -0.014,-0.67696 z"
       sodipodi:nodetypes="ccccccsssssscccccccccssccccccccssccssccscsccccccscccscssccsscccccsscccscccssscssccccccccsccccccccscccccccccsscccsccscscccccccccccccccccccccccccccccccccccccccccscccccsccccssccssccccccsscccsccsscssccccccccccccssccsscscccccccccccccscsccccccsscscccsccc" /></g></svg>
